<svg width="913" height="758" viewBox="0 0 913 758" fill="none" xmlns="http://www.w3.org/2000/svg">
<path d="M312.95 720.933C288 725.143 263.07 729.263 237.58 727.443C221.91 726.333 206.23 727.723 190.71 729.523C98 740.273 22.6099 673.823 1.41993 605.343C0.979931 603.913 0.579977 602.463 0.279977 601.003C-0.280023 598.253 -0.180023 595.513 2.27998 593.763C4.95998 591.893 7.17995 593.673 9.55995 595.003C24.8099 603.493 40.28 611.773 56.66 617.623C81.1 626.353 107.98 603.173 104.47 576.973C102.89 565.133 99.9999 553.573 94.3099 542.773C81.1799 517.773 73.31 491.263 69.72 463.163C66.79 440.563 66.81 418.003 67.22 395.403C67.77 364.703 72.6099 334.403 78.1099 304.283C84.0687 271.658 95.5106 240.277 111.95 211.473C133.46 173.533 160.61 140.473 192.42 111.003C232.01 74.124 278.367 45.2595 328.93 26.0033C368.58 10.8933 409.29 0.103273 452.25 0.00327275C495.6 -0.146727 538.09 4.82329 578.08 22.3933C591.953 28.5771 606.702 32.5712 621.8 34.2333C646.15 36.9333 668.8 45.5133 691.03 55.7333C708.03 63.5633 723.77 73.3033 739.22 83.6633C747 88.8733 753.9 95.1633 760.79 101.423C809.89 146.083 849.92 197.683 877.38 258.243C891.176 288.52 900.83 320.518 906.08 353.373C910.22 379.453 913.17 405.483 911.91 431.893C909.17 489.223 889.86 540.223 852.01 583.473C825.3 614.003 790.53 630.473 750.81 637.033C748.81 637.363 746.81 637.623 744.89 637.923C745.158 637.149 745.514 636.407 745.95 635.713C759.809 618.679 772.453 600.691 783.79 581.883C798.103 558.235 809.356 532.866 817.28 506.383C818.106 503.453 818.223 500.368 817.62 497.383C814.31 502.013 811.38 506.153 808.4 510.263C796.53 526.613 783.64 542.003 766.91 553.693C729.45 579.863 688.27 589.943 643.11 582.113C602.11 574.983 568.52 555.403 542.92 522.213C526.14 500.453 514.92 476.393 509.92 449.383C508.52 441.773 504.24 439.073 496.63 440.493C494.192 441.03 491.683 441.172 489.2 440.913C479.08 439.583 476.07 441.913 473.86 451.603C470.53 466.133 467.96 480.873 460.86 494.313C447.67 519.143 430.02 539.933 406.71 555.843C383.211 572.084 355.799 581.751 327.31 583.843C309.556 585.354 291.676 584.256 274.24 580.583C271.35 579.953 271.33 580.583 271.77 583.153C273.64 594.253 274.82 605.363 274.22 616.733C273.264 635.548 267.882 653.871 258.51 670.213C254.6 677.103 255.51 681.453 262.25 685.793C273.98 693.393 285.8 700.843 297.53 708.423C303.1 712.053 308.7 715.663 312.95 720.933ZM430.75 346.293L430.68 346.423C430.73 345.933 431 345.313 430.8 344.973C422.47 330.373 412.54 317.213 397.85 308.273C396.01 307.153 394.77 307.803 393.27 308.473C376.89 315.843 360.52 323.233 344.1 330.473C342.1 331.373 339.59 334.053 337.95 332.403C336.31 330.753 338.34 327.803 339.04 325.483C339.323 324.704 339.706 323.964 340.18 323.283C342.89 318.793 347.09 315.643 350.56 311.843C353.28 308.843 355.84 305.843 356.64 301.183C348.79 304.183 341.13 305.823 334.48 310.263C325.417 316.461 317.239 323.862 310.17 332.263C294.899 349.688 282.58 369.493 273.7 390.893C269.89 400.163 269.5 410.833 262.44 418.823C261.68 419.683 262.07 421.733 262.24 423.183C262.36 424.313 263.14 425.423 262.57 426.563C258.47 434.843 260.17 444.083 258.36 452.823C255.98 464.283 256.93 476.233 257.71 488.073C258.99 507.463 261.71 526.663 264.03 545.913C264.53 550.123 266.69 553.523 271.03 554.843C280.866 557.851 290.975 559.881 301.21 560.903C333.98 564.203 363.78 554.583 391.71 538.623C406.81 530.003 417.13 515.803 428.25 502.843C436.222 493.782 441.376 482.591 443.08 470.643C446.61 465.563 449.9 460.463 451.22 454.183C455.079 436.451 455.928 418.197 453.73 400.183C451.25 380.573 444.64 362.533 432.03 347.003L430.75 346.293ZM553.89 345.053C552.36 344.883 551.54 345.773 550.97 347.053C526.3 385.593 521.97 426.113 539.09 468.723C538.66 471.723 538.91 474.323 542.97 474.153H542.91C542.941 474.984 543.045 475.811 543.22 476.623C549.508 497.501 562.274 515.838 579.67 528.983C588.15 535.473 597.67 540.163 607.09 545.113C630.09 557.213 654.14 564.113 680.33 561.223C706.52 558.333 730.88 551.333 752.23 535.133C762.76 527.133 772.95 518.943 781.07 508.473C800.73 483.133 810.82 454.123 812.78 422.353C814.39 396.353 804.37 373.223 792.86 350.743C783.48 332.423 769.11 318.633 752.76 306.373C729.62 288.953 703.95 279.673 675.1 279.113C664.297 279.089 653.52 280.202 642.95 282.433C634.05 284.153 625.04 285.983 617.17 291.713C618.59 292.483 619.81 293.023 620.9 293.713C633.9 302.403 648.67 309.113 655.9 324.473C656.9 326.693 659.32 329.133 657.48 331.243C655.64 333.353 652.86 331.013 650.48 330.643C649.88 330.553 649.37 329.943 648.78 329.643C632.442 320.67 615.411 313.022 597.85 306.773C593.7 305.293 589.35 305.293 585.57 308.363C578.57 314.033 571.35 319.463 565.52 326.363C560.74 331.973 555.23 337.313 553.86 345.123L553.89 345.053ZM829.95 381.263C832.64 371.423 832.43 361.383 831.38 351.373C829.75 335.843 824.5 321.063 820.64 306.073C811.54 270.733 796.42 237.823 776.51 207.183C758.809 179.939 737.419 155.277 712.95 133.903C702.743 124.858 691.978 116.461 680.72 108.763C672.14 102.973 669.09 103.883 664.42 113.083C659.9 121.973 655.71 131.083 650.96 139.823C640.841 158.602 627.919 175.728 612.64 190.613C589.92 212.613 563.03 227.883 532.83 237.283C517.13 242.163 501.1 246.213 486 252.783C470.167 259.674 453.934 265.608 437.39 270.553C429.91 272.793 422.56 275.483 415.15 277.943C412.81 278.723 410.61 279.633 411.43 282.733C412.14 285.443 413.8 285.733 416.67 285.613C426.971 285.385 437.231 286.99 446.97 290.353C447.881 290.572 448.681 291.117 449.217 291.886C449.753 292.654 449.989 293.593 449.88 294.523C449.66 296.583 448.29 297.573 446.37 298.233C443.44 299.233 440.43 298.833 437.47 299.143C432.65 299.633 430.94 302.483 433.25 306.623C434.927 309.492 436.865 312.2 439.04 314.713C450.31 328.183 460.28 342.303 465.64 359.393C471.11 376.843 476.76 394.143 477.15 412.713C477.32 420.863 480.96 423.263 488.93 421.593C491.701 421.004 494.56 420.953 497.35 421.443C504.43 422.673 507.92 419.923 507.93 412.873C507.93 390.663 514.02 369.873 523.19 349.953C531.25 332.443 543.61 317.693 555.78 302.953C558.32 299.873 558.1 298.483 554.24 297.743C550.66 297.063 547.02 296.633 543.51 295.743C541.71 295.263 539.23 294.743 538.99 292.393C538.934 291.283 539.274 290.189 539.95 289.306C540.626 288.423 541.593 287.809 542.68 287.573C549.99 285.643 556.92 281.663 564.68 282.293C574.12 283.073 582.41 280.713 590.87 276.423C615.47 263.943 641.8 256.883 669.39 256.503C691.95 256.113 713.95 259.013 734.42 270.113C744.28 275.483 755.01 279.053 764.42 285.673C798.13 309.473 818.87 341.863 829.95 381.263Z" fill="#705A10"/>
<path d="M312.95 720.933C308.7 715.663 303.1 712.053 297.52 708.443C285.79 700.863 273.97 693.443 262.24 685.813C255.53 681.473 254.59 677.123 258.5 670.233C267.872 653.891 273.255 635.568 274.21 616.753C274.81 605.383 273.63 594.273 271.76 583.173C271.32 580.573 271.34 579.973 274.23 580.603C291.666 584.276 309.546 585.374 327.3 583.863C355.789 581.771 383.201 572.104 406.7 555.863C430.01 539.953 447.7 519.163 460.85 494.333C467.99 480.893 470.56 466.153 473.85 451.623C476.06 441.933 479.07 439.623 489.19 440.933C491.674 441.192 494.182 441.05 496.62 440.513C504.23 439.093 508.51 441.793 509.91 449.403C514.91 476.403 526.1 500.473 542.91 522.233C568.51 555.423 602.1 575.003 643.1 582.133C688.26 589.993 729.44 579.913 766.86 553.763C783.59 542.073 796.48 526.683 808.35 510.333C811.35 506.223 814.26 502.083 817.57 497.453C818.173 500.438 818.057 503.523 817.23 506.453C809.307 532.936 798.053 558.305 783.74 581.953C772.417 600.735 759.789 618.699 745.95 635.713C745.51 636.407 745.152 637.148 744.88 637.923C717.36 664.863 689.09 690.853 655.24 709.923C620.862 729.442 583.575 743.318 544.8 751.023C496.94 760.453 449.32 758.583 401.6 749.023C376.95 744.113 353.51 736.053 330.61 726.113C324.959 723.668 319.027 721.928 312.95 720.933ZM469.01 644.113C471.606 643.534 474.014 642.31 476.01 640.553C487.47 631.243 500.901 632.553 514.201 633.413C516.091 633.533 518.41 635.123 519.52 632.963C520.52 630.963 518.45 629.343 517.1 627.963C516.078 626.868 514.942 625.886 513.71 625.033C495.98 612.893 473.39 625.543 468.84 644.033C468.7 644.213 468.56 644.403 468.41 644.583L469.01 644.113Z" fill="#CF8B00"/>
<path d="M553.859 345.113C555.229 337.303 560.739 331.963 565.519 326.353C571.349 319.503 578.599 314.073 585.569 308.353C589.349 305.283 593.699 305.283 597.849 306.763C615.407 313.019 632.435 320.674 648.769 329.653C649.359 329.973 649.869 330.583 650.469 330.653C652.829 331.023 655.619 333.353 657.469 331.253C659.319 329.153 656.919 326.703 655.889 324.483C648.689 309.113 633.949 302.443 620.949 293.753C619.859 293.023 618.639 292.483 617.219 291.753C625.059 285.983 634.07 284.113 642.95 282.433C653.52 280.202 664.297 279.089 675.1 279.113C703.97 279.633 729.619 288.913 752.759 306.253C769.109 318.513 783.479 332.303 792.859 350.623C804.369 373.103 814.389 396.213 812.779 422.233C810.779 454.003 800.729 483.013 781.069 508.353C772.949 518.863 762.759 527.113 752.229 535.053C730.879 551.253 706.379 558.283 680.329 561.143C654.279 564.003 630.129 557.143 607.089 545.033C597.659 540.083 588.149 535.393 579.669 528.903C562.273 515.758 549.508 497.421 543.219 476.543C543.06 475.742 542.969 474.929 542.949 474.113C546.999 473.763 549.799 476.263 552.749 478.403C561.355 484.771 571.647 488.462 582.339 489.013C619.389 490.853 644.819 462.853 647.339 426.423C649.599 394.163 633.639 368.103 605.799 350.423C593.589 342.683 580.279 340.173 566.099 343.293C562.059 344.223 558.049 345.173 553.859 345.113Z" fill="#CF8B00"/>
<path d="M829.95 381.263C818.84 341.863 798.1 309.473 764.37 285.703C754.98 279.083 744.25 275.513 734.37 270.143C713.95 259.013 691.95 256.113 669.42 256.453C641.83 256.833 615.5 263.893 590.9 276.373C582.44 280.663 574.15 283.023 564.71 282.243C556.92 281.613 549.99 285.593 542.71 287.523C541.61 287.744 540.626 288.352 539.937 289.236C539.247 290.121 538.897 291.223 538.95 292.343C539.19 294.733 541.67 295.213 543.47 295.693C546.98 296.613 550.62 297.043 554.2 297.693C558.06 298.433 558.28 299.823 555.74 302.903C543.57 317.663 531.21 332.413 523.15 349.903C513.98 369.803 507.9 390.613 507.89 412.823C507.89 419.823 504.39 422.623 497.31 421.393C494.52 420.903 491.661 420.954 488.89 421.543C480.89 423.213 477.28 420.813 477.11 412.663C476.72 394.093 471.11 376.793 465.6 359.343C460.24 342.253 450.27 328.133 439 314.663C436.825 312.15 434.887 309.442 433.21 306.573C430.9 302.433 432.61 299.573 437.43 299.093C440.43 298.783 443.43 299.183 446.33 298.183C448.25 297.523 449.62 296.533 449.84 294.473C449.949 293.543 449.713 292.604 449.177 291.836C448.64 291.067 447.841 290.522 446.93 290.303C437.191 286.94 426.931 285.335 416.63 285.563C413.76 285.663 412.1 285.393 411.39 282.683C410.57 279.583 412.77 278.683 415.11 277.893C422.52 275.433 429.87 272.743 437.35 270.503C453.894 265.558 470.127 259.624 485.96 252.733C501.06 246.163 517.09 242.113 532.79 237.233C562.99 227.833 589.88 212.593 612.6 190.563C627.886 175.696 640.818 158.586 650.95 139.823C655.7 131.053 659.89 121.973 664.41 113.083C669.08 103.883 672.13 102.973 680.71 108.763C691.971 116.461 702.739 124.858 712.95 133.903C737.419 155.277 758.809 179.939 776.51 207.183C796.42 237.823 811.51 270.733 820.64 306.073C824.5 321.073 829.75 335.843 831.38 351.373C832.46 361.383 832.67 371.423 829.95 381.263Z" fill="#CF8B00"/>
<path d="M443.049 470.713C441.345 482.661 436.191 493.852 428.219 502.913C417.099 515.913 406.779 530.073 391.679 538.693C363.749 554.693 333.949 564.273 301.179 560.973C290.944 559.951 280.835 557.922 270.999 554.913C266.689 553.593 264.529 550.193 263.999 545.983C261.709 526.733 258.999 507.533 257.679 488.143C256.899 476.303 255.949 464.353 258.329 452.893C260.139 444.153 258.439 434.893 262.539 426.633C263.109 425.493 262.329 424.383 262.209 423.253C262.039 421.803 261.649 419.753 262.409 418.893C269.469 410.893 269.859 400.233 273.669 390.963C282.549 369.563 294.868 349.758 310.139 332.333C317.208 323.932 325.386 316.531 334.449 310.333C341.099 305.893 348.759 304.253 356.609 301.253C355.809 305.873 353.249 308.953 350.529 311.913C347.059 315.713 342.859 318.913 340.149 323.353C339.676 324.034 339.292 324.774 339.009 325.553C338.309 327.873 336.359 330.893 337.919 332.473C339.479 334.053 342.039 331.473 344.069 330.543C360.489 323.253 376.859 315.863 393.239 308.543C394.739 307.873 395.979 307.223 397.819 308.343C412.509 317.283 422.439 330.443 430.769 345.043C430.969 345.383 430.699 346.043 430.639 346.493C428.569 345.933 426.479 345.433 424.419 344.813C415.539 342.153 406.509 341.143 397.339 342.813C379.709 345.973 366.489 356.563 355.809 369.883C341.149 388.113 333.029 408.953 336.949 433.113C341.519 461.233 363.269 484.173 390.409 488.553C400.409 490.173 410.409 490.193 419.599 483.853C426.949 478.803 435.209 475.043 443.049 470.713Z" fill="#CF8B00"/>
<path d="M553.861 345.113C558.051 345.213 562.061 344.263 566.131 343.363C580.311 340.243 593.621 342.753 605.831 350.493C633.671 368.143 649.631 394.203 647.371 426.493C644.821 462.923 619.371 490.923 582.371 489.083C571.661 488.528 561.353 484.823 552.741 478.433C549.741 476.293 546.991 473.793 542.941 474.143H543.001C543.001 471.373 542.161 469.273 539.121 468.713C522.001 426.113 526.301 385.553 550.951 347.013C552.531 347.273 553.661 346.843 553.871 345.013L553.861 345.113ZM577.061 458.323C599.261 458.463 617.821 439.863 618.001 417.323C618.181 394.783 599.351 375.323 576.861 375.143C565.768 375.113 555.111 379.465 547.21 387.252C539.309 395.039 534.803 405.631 534.671 416.723C534.571 440.173 552.851 458.113 577.061 458.283V458.323Z" fill="#FEFEFE"/>
<path d="M443.049 470.713C435.209 475.043 426.969 478.803 419.609 483.853C410.399 490.193 400.419 490.173 390.419 488.553C363.279 484.173 341.529 461.233 336.959 433.113C333.029 408.953 341.149 388.113 355.839 369.783C366.519 356.463 379.739 345.873 397.369 342.713C406.539 341.073 415.569 342.083 424.449 344.713C426.509 345.333 428.599 345.833 430.669 346.393L430.749 346.263C430.829 347.053 431.409 347.053 431.999 347.043C444.609 362.573 451.219 380.613 453.699 400.223C455.897 418.237 455.049 436.491 451.189 454.223C449.869 460.533 446.579 465.633 443.049 470.713ZM408.209 458.213C432.209 457.963 450.019 440.213 449.929 416.583C449.926 411.074 448.826 405.62 446.693 400.541C444.56 395.461 441.437 390.857 437.506 386.997C433.576 383.137 428.915 380.098 423.798 378.058C418.68 376.017 413.208 375.016 407.699 375.113C384.619 375.263 366.519 393.793 366.619 417.113C366.729 440.673 384.709 458.443 408.209 458.213Z" fill="#FEFEFE"/>
<path d="M539.089 468.683C542.089 469.243 543.019 471.343 542.969 474.113C538.949 474.283 538.659 471.723 539.089 468.683Z" fill="#CF8B00"/>
<path d="M553.89 345.053C553.68 346.843 552.55 347.273 550.97 347.053C551.54 345.773 552.36 344.883 553.89 345.053Z" fill="#CF8B00"/>
<path d="M432 347.113C431.41 347.113 430.83 347.113 430.75 346.333L432 347.113Z" fill="#CF8B00"/>
<path d="M468.881 643.983C473.431 625.503 496.021 612.853 513.751 624.983C514.982 625.836 516.119 626.818 517.141 627.913C518.491 629.333 520.571 630.983 519.561 632.913C518.451 635.073 516.131 633.483 514.241 633.363C500.941 632.523 487.511 631.193 476.051 640.503C474.054 642.26 471.646 643.484 469.051 644.063L468.881 643.983Z" fill="#705A10"/>
<path d="M469.009 644.113L468.449 644.533C468.599 644.353 468.739 644.163 468.879 643.983L469.009 644.113Z" fill="#705A10"/>
<path d="M577.061 458.283C552.851 458.123 534.57 440.173 534.67 416.653C534.813 405.568 539.324 394.986 547.224 387.208C555.124 379.43 565.774 375.083 576.86 375.113C599.35 375.323 618.18 394.633 618 417.293C617.82 439.953 599.261 458.423 577.061 458.283Z" fill="#705A10"/>
<path d="M408.209 458.213C384.709 458.443 366.73 440.673 366.62 417.103C366.52 393.743 384.62 375.213 407.7 375.103C413.211 375.004 418.686 376.003 423.807 378.042C428.927 380.082 433.59 383.121 437.523 386.983C441.457 390.844 444.581 395.451 446.715 400.533C448.848 405.615 449.948 411.071 449.95 416.583C450.02 440.223 432.229 457.963 408.209 458.213Z" fill="#705A10"/>
</svg>
