<svg width="951" height="714" viewBox="0 0 951 714" fill="none" xmlns="http://www.w3.org/2000/svg">
<path d="M120.725 205.966C126.165 181.656 133.785 158.166 146.135 136.366C168.395 97.0656 203.134 73.2656 244.574 58.7256C280.924 45.9556 317.474 33.6156 355.094 24.7256C395.618 15.3198 436.89 9.50064 478.435 7.33557C525.435 4.74557 572.485 2.33556 619.545 0.575565C641.545 -0.254435 663.725 -0.244401 685.725 0.985599C709.525 2.3156 733.115 5.33561 754.405 18.1256C766.345 25.2956 774.034 35.1256 778.814 47.7356C783.244 59.4356 784.255 59.9256 796.365 58.9856C807.545 58.1156 816.795 62.0656 824.675 70.3456C838.385 84.7456 845.674 102.446 852.094 120.716C865.254 158.016 873.555 196.516 880.885 235.266C866.885 252.476 848.885 264.366 829.795 274.996C829.317 274.24 828.931 273.432 828.645 272.586C825.035 255.586 822.045 238.526 817.795 221.736C806.405 176.736 787.645 134.816 763.905 94.9756C759.505 87.5756 753.835 86.4155 746.615 87.5355C721.775 91.4155 697.025 95.7955 672.445 101.156C613.165 114.156 555.445 131.916 500.655 158.156C452.805 181.076 406.225 206.336 361.805 235.396C344.955 246.396 328.055 257.456 312.745 270.666C305.315 274.566 297.385 277.906 294.745 287.076C284.225 290.856 278.965 300.206 272.375 308.146C259.375 304.816 247.025 299.716 234.945 294.076C201.255 278.366 170.544 258.136 144.334 231.586C136.154 223.366 126.015 216.836 120.725 205.966Z" fill="#3D67B3"/>
<path d="M196.575 632.366C168.905 635.516 142.475 630.016 117.245 619.366C64.7247 597.106 26.5347 560.256 5.46465 506.606C3.37466 501.286 0.324723 496.356 0.0347232 490.416C-0.155277 486.516 0.334723 482.896 4.03472 480.946C7.73472 478.996 10.6046 481.396 13.1246 483.866C27.5846 498.086 43.1246 510.946 61.1246 520.436C79.5646 530.136 97.7347 530.246 115.045 517.846C132.805 505.126 144.045 488.786 140.305 465.786C135.745 437.716 130.495 409.786 125.615 381.786C124.715 376.606 124.155 371.356 123.445 366.136C125.535 364.966 127.365 364.636 129.765 366.086C137.445 370.726 146.425 372.176 154.885 373.986C166.045 376.376 177.745 376.726 189.235 376.986C209.595 377.426 229.965 377.136 250.325 377.146C249.885 382.856 249.095 388.556 249.075 394.256C248.965 422.026 248.695 449.796 249.225 477.546C249.635 498.606 249.805 519.626 247.565 540.546C246.495 550.546 244.775 560.416 243.355 570.346C240.805 572.836 240.055 576.216 238.905 579.406C235.735 588.166 232.795 597.016 228.455 605.306C221.535 618.616 210.215 626.836 196.575 632.366Z" fill="#3D67B3"/>
<path d="M893.254 343.946C894.464 373.076 897.154 402.156 896.554 431.346C896.104 452.946 898.784 474.506 897.414 496.086C894.954 534.996 880.464 568.286 849.614 593.086C832.614 606.736 812.414 612.626 790.944 614.406C787.324 614.706 783.594 615.036 780.064 613.606C779.004 603.516 785.444 595.336 788.574 586.786C797.784 561.626 805.324 536.036 812.664 510.346C814.844 502.736 819.454 495.746 818.854 487.346C821.064 486.296 821.274 484.346 821.464 482.176C823.754 456.236 829.464 430.706 830.904 404.666C831.844 387.776 832.714 370.876 833.614 353.986C846.764 352.986 859.904 352.566 872.774 348.846C879.484 346.966 885.904 343.356 893.254 343.946Z" fill="#3D67B3"/>
<path d="M719.515 633.836C724.685 636.836 729.665 634.306 734.635 633.196C738.785 632.266 742.825 630.826 748.025 629.286C737.675 648.016 724.875 661.286 703.215 662.756C690.215 663.636 677.215 664.676 661.955 665.806C676.385 671.616 681.755 683.376 688.715 693.646C693.025 699.996 697.815 705.716 704.405 709.866C694.215 715.186 673.815 715.236 659.135 710.006C638.355 702.606 624.015 687.096 610.135 671.006C603.275 663.006 596.585 654.886 589.075 645.946C587.865 652.386 586.715 657.946 581.775 661.416C576.835 664.886 571.235 665.416 565.405 665.686C536.255 666.886 507.115 668.306 477.965 669.486C464.705 670.026 460.465 664.806 461.965 650.436C463.575 648.486 462.545 646.156 462.885 644.026C483.445 642.506 504.035 644.026 524.665 642.266C557.895 639.446 590.155 632.446 622.175 623.746C629.355 622.496 637.515 624.226 642.775 617.056C643.912 617.161 645.057 617.161 646.195 617.056C668.025 612.566 688.345 615.056 706.005 629.886C710.035 633.126 714.565 634.156 719.515 633.836Z" fill="#E75703"/>
<path d="M893.254 343.946C885.904 343.356 879.484 346.946 872.774 348.946C859.904 352.666 846.774 353.136 833.614 354.086C831.093 353.93 828.565 353.93 826.044 354.086C806.394 356.606 786.694 356.166 767.044 354.646C739.804 352.536 712.834 348.056 685.754 344.576C670.754 342.646 655.874 339.466 640.594 342.336C626.791 344.795 613.466 349.426 601.114 356.056C599.174 357.116 596.524 358.826 594.744 357.056C592.964 355.286 595.103 352.826 596.073 350.936C603.473 336.466 615.984 327.836 630.394 321.556C643.504 315.846 656.794 314.406 670.544 319.786C677.659 322.529 685.307 323.606 692.904 322.936C735.514 319.356 775.204 305.756 813.374 287.226C819.504 284.226 825.374 280.506 829.744 274.946C848.804 264.316 866.883 252.426 880.833 235.216C888.533 231.686 893.914 225.316 899.274 219.216C907.584 209.756 915.274 199.776 923.144 189.936C925.334 187.176 927.144 183.676 931.214 187.036C935.284 190.396 931.954 192.956 929.944 195.616C916.334 213.536 901.704 230.546 885.114 245.806C884.403 246.675 883.814 247.637 883.364 248.666C881.364 248.746 880.194 250.296 878.784 251.466C863.044 264.466 847.063 277.056 829.573 287.646C827.343 287.106 825.724 288.366 823.874 289.316C812.094 295.396 800.493 301.946 788.333 307.166C770.423 314.866 751.644 320.166 732.674 324.626C728.434 325.626 724.124 326.336 719.964 327.626C716.134 328.766 711.894 328.796 707.534 331.626C740.833 332.691 774.157 330.575 807.054 325.306C815.684 323.946 824.214 322.226 832.344 318.906C843.024 317.956 852.414 312.906 862.344 309.616C873.664 305.886 884.674 302.366 886.854 288.326C886.854 287.986 887.494 287.716 887.854 287.406C890.194 296.406 891.794 296.866 899.344 290.996C908.344 283.996 917.464 276.996 926.424 269.826C929.084 267.706 931.704 266.446 934.144 269.466C936.584 272.486 934.584 274.756 931.984 276.836C921.794 284.976 912.174 293.836 900.304 299.696C896.457 301.762 893.093 304.622 890.434 308.086L834.024 330.146C829.674 330.001 825.321 330.272 821.024 330.956C803.304 334.016 785.514 336.586 767.524 337.516C761.344 337.836 755.114 337.786 748.994 338.596C741.994 339.506 734.793 339.066 727.313 341.686C745.193 345.866 762.603 346.036 779.813 347.606C797.871 349.405 816.093 348.63 833.934 345.306C849.594 345.766 864.574 342.506 879.384 337.586C883.954 336.066 888.384 334.846 892.024 331.586C900.124 332.656 906.623 328.226 912.833 324.446C922.833 318.386 932.034 311.176 941.494 304.346C944.104 302.456 946.954 301.006 949.304 303.696C952.094 306.886 949.163 309.046 946.813 310.956C934.883 320.676 922.464 329.566 908.234 335.766C903.034 337.976 897.724 340.266 893.254 343.946Z" fill="#0A3FA0"/>
<path d="M462.945 644.036C462.605 646.166 463.635 648.496 462.025 650.446C439.125 651.446 416.235 652.786 393.325 653.506C349.435 654.896 305.665 653.186 262.325 646.106C240.255 642.496 217.945 639.726 196.625 632.366C210.265 626.846 221.625 618.616 228.565 605.246C232.905 596.956 235.845 588.106 239.015 579.346C240.165 576.156 240.915 572.776 243.465 570.286C272.575 587.166 301.265 604.546 333.165 616.286C356.085 624.746 379.515 630.826 403.165 636.046C422.655 640.406 442.955 641.506 462.945 644.036Z" fill="#0A3FA0"/>
<path d="M111.134 288.976C110.914 266.596 111.134 244.256 117.224 222.456C124.344 223.916 127.654 230.006 132.224 234.606C149.814 252.106 170.454 265.736 190.884 279.506C211.594 293.506 234.204 304.006 257.454 313.146C260.344 314.276 263.594 315.146 265.584 317.946C265.534 320.856 263.734 323.056 262.414 325.406C259.164 331.196 255.964 336.976 256.014 343.896C245.584 342.946 235.014 342.576 224.724 340.946C190.364 335.546 157.724 325.526 129.434 304.196C123.134 299.406 115.734 295.836 111.134 288.976Z" fill="#3D67B3"/>
<path d="M719.515 633.836C714.565 634.126 710.035 633.095 706.115 629.835C688.455 615.025 668.115 612.515 646.305 617.005C645.17 617.111 644.029 617.111 642.895 617.005C643.545 614.005 646.045 613.455 648.425 612.535C656.065 609.595 663.825 606.915 671.195 603.415C697.57 591.033 722.433 575.659 745.295 557.595C761.495 544.695 777.075 531.365 790.435 515.515C798.255 506.225 806.225 497.065 814.155 487.865C816.595 485.025 816.624 485.045 818.854 487.355C819.454 495.715 814.855 502.705 812.665 510.355C805.325 536.045 797.784 561.635 788.574 586.795C785.444 595.345 779.004 603.525 780.064 613.615C760.224 621.395 740.255 628.836 719.515 633.836Z" fill="#0A3FA0"/>
<path d="M111.135 288.976C115.735 295.876 123.135 299.406 129.475 304.196C157.725 325.526 190.405 335.546 224.765 340.946C235.095 342.576 245.625 342.946 256.055 343.896C274.325 345.996 292.675 345.636 310.995 345.226C316.237 344.958 321.434 344.123 326.495 342.736C330.595 341.736 332.305 338.346 331.855 334.256C331.405 330.166 327.855 330.716 325.025 330.116C312.565 327.506 299.745 327.116 287.535 322.656C280.605 320.146 273.405 317.246 265.625 317.946C263.625 315.126 260.385 314.276 257.495 313.146C234.245 304.006 211.635 293.466 190.925 279.506C170.495 265.736 149.855 252.106 132.265 234.606C127.655 230.006 124.345 223.916 117.265 222.456C111.265 211.056 101.925 202.106 94.4752 191.756C93.5452 190.466 92.3451 189.376 91.3751 188.106C89.7251 185.936 89.8152 183.856 92.0352 182.106C94.2552 180.356 96.3152 180.946 98.0352 182.986C101.805 187.596 105.505 192.256 109.245 196.886C112.405 200.796 115.385 204.936 120.805 205.966C126.095 216.866 136.235 223.366 144.395 231.616C170.605 258.166 201.315 278.396 235.005 294.106C247.085 299.746 259.445 304.846 272.435 308.176C273.535 308.956 274.535 310.056 275.765 310.486C295.485 317.366 315.985 320.756 336.565 323.716C339.995 324.216 342.645 322.286 345.385 320.536C364.385 308.396 383.515 305.536 402.695 320.236C403.226 320.67 403.795 321.055 404.395 321.386C414.255 326.296 418.025 335.226 420.195 345.216C416.615 346.126 415.605 343.146 415.025 341.016C412.495 331.666 405.425 325.956 397.825 321.856C374.015 309.026 344.695 321.446 334.725 347.856C331.725 355.856 330.965 364.306 330.265 372.746C329.159 371.566 327.787 370.669 326.262 370.13C324.738 369.59 323.107 369.424 321.505 369.646L250.505 377.086C230.145 377.086 209.775 377.366 189.415 376.926C177.925 376.676 166.225 376.326 155.065 373.926C146.605 372.116 137.625 370.666 129.945 366.026C127.545 364.576 125.715 364.906 123.625 366.076C118.925 360.596 112.625 357.546 106.385 354.236C102.615 352.236 98.6753 350.356 96.0453 346.736V338.386C104.295 340.876 109.905 348.266 118.375 350.386C138.955 361.786 161.375 367.316 184.525 368.636C203.735 369.736 223.055 368.806 242.325 368.906C245.754 368.992 249.162 368.351 252.325 367.026C267.595 367.426 282.795 367.506 297.855 364.026C305.605 362.246 313.915 365.246 321.595 361.586C324.185 360.346 326.905 359.416 326.265 355.836C325.555 351.916 322.665 352.156 319.425 352.076C296.995 351.526 274.675 354.836 252.245 354.026C250.455 353.02 248.478 352.39 246.435 352.176C235.345 350.936 224.245 349.756 213.215 348.086C188.555 344.346 165.765 335.166 143.675 323.876C133.045 318.446 124.045 310.456 113.315 305.236C108.825 299.396 102.645 295.336 97.5553 290.136C96.0053 288.556 93.5552 287.136 95.5052 284.476C97.4552 281.816 100.105 281.986 102.785 283.536C105.595 285.176 107.575 288.296 111.135 288.976Z" fill="#0A3FA0"/>
<path d="M113.225 305.196C123.955 310.416 132.954 318.406 143.584 323.836C165.674 335.126 188.465 344.306 213.125 348.046C224.125 349.716 235.254 350.896 246.344 352.136C248.385 352.351 250.362 352.977 252.155 353.976C251.765 358.316 251.155 362.646 252.235 366.976C249.071 368.301 245.663 368.942 242.235 368.856C222.965 368.756 203.645 369.686 184.435 368.586C161.245 367.266 138.865 361.736 118.285 350.336C117.525 336.756 113.285 323.596 113.285 309.926C113.245 308.346 113.235 306.766 113.225 305.196Z" fill="#3D67B3"/>
<path d="M887.844 287.396C887.514 287.706 886.924 287.976 886.844 288.316C884.664 302.316 873.654 305.876 862.334 309.606C852.384 312.896 842.994 317.946 832.334 318.896C832.654 308.386 832.334 297.896 829.564 287.696C847.054 277.106 863.035 264.476 878.775 251.516C880.185 250.346 881.314 248.796 883.354 248.716C885.364 261.556 887.294 274.396 887.844 287.396Z" fill="#3D67B3"/>
<path d="M892.014 331.526C888.404 334.836 883.944 336.056 879.374 337.526C864.564 342.446 849.584 345.706 833.924 345.246L834.014 330.086L890.434 308.076C891.6 315.836 892.128 323.679 892.014 331.526Z" fill="#3D67B3"/>
<path d="M95.925 338.366V346.716C87.565 342.716 81.245 336.006 74.445 329.986C72.535 328.296 70.665 326.086 72.695 323.486C74.865 320.716 77.5749 321.536 79.8349 323.566C85.2549 328.436 90.565 333.426 95.925 338.366Z" fill="#3D67B3"/>
<path d="M250.435 377.056L321.435 369.616C323.036 369.394 324.668 369.56 326.192 370.099C327.716 370.639 329.089 371.536 330.195 372.716C338.965 394.466 352.015 406.276 376.195 404.876C393.055 403.876 412.825 388.876 417.135 372.366C419.465 363.466 419.935 354.366 420.135 345.216C417.965 335.216 414.195 326.296 404.335 321.386C403.734 321.055 403.165 320.67 402.635 320.236C383.455 305.546 364.345 308.396 345.325 320.536C342.585 322.286 339.935 324.216 336.505 323.716C315.925 320.716 295.425 317.366 275.705 310.486C274.475 310.056 273.475 308.956 272.375 308.176C278.965 300.236 284.225 290.886 294.745 287.106C301.095 287.706 306.865 290.716 313.075 291.726C327.075 294.006 341.108 296.069 355.175 297.916C376.995 300.786 398.835 303.456 420.925 302.366C433.015 301.776 439.925 295.816 440.515 285.366C440.685 282.366 440.795 278.906 438.275 277.066C435.425 274.976 432.735 277.356 430.205 278.956C422.015 284.136 413.095 287.146 403.405 285.606C373.155 280.806 342.945 275.676 312.715 270.666C328.025 257.456 344.925 246.426 361.775 235.396C406.195 206.336 452.775 181.076 500.625 158.156C555.455 131.886 613.135 114.076 672.415 101.156C696.995 95.7955 721.745 91.4155 746.585 87.5355C753.805 86.4155 759.475 87.5356 763.875 94.9756C787.615 134.816 806.375 176.736 817.765 221.736C822.015 238.526 825.005 255.636 828.615 272.586C828.901 273.432 829.288 274.24 829.765 274.996C825.405 280.556 819.525 284.296 813.395 287.276C775.225 305.806 735.535 319.406 692.925 322.986C685.329 323.657 677.68 322.579 670.565 319.836C656.815 314.456 643.565 315.896 630.415 321.606C616.005 327.886 603.495 336.516 596.095 350.986C595.095 352.876 592.835 355.236 594.765 357.106C596.695 358.976 599.195 357.106 601.135 356.106C613.487 349.476 626.813 344.845 640.615 342.386C655.895 339.516 670.785 342.696 685.775 344.626C712.855 348.106 739.775 352.626 767.065 354.696C786.715 356.216 806.415 356.696 826.065 354.136C828.586 353.98 831.114 353.98 833.635 354.136C832.735 371.026 831.865 387.926 830.925 404.816C829.475 430.816 823.775 456.386 821.485 482.326C821.295 484.496 821.085 486.446 818.875 487.496C816.645 485.186 816.615 485.166 814.175 488.006C806.245 497.206 798.275 506.366 790.455 515.656C777.095 531.506 761.515 544.836 745.315 557.736C722.453 575.799 697.59 591.174 671.215 603.556C663.845 607.056 656.085 609.736 648.445 612.676C646.065 613.596 643.565 614.166 642.915 617.146H642.855C635.125 616.736 628.415 619.436 622.255 623.836C590.255 632.536 557.975 639.536 524.745 642.356C504.115 644.096 483.525 642.596 462.965 644.116C442.965 641.586 422.675 640.486 403.085 636.116C379.485 630.896 356.085 624.816 333.085 616.356C301.185 604.586 272.495 587.206 243.385 570.356C244.805 560.426 246.525 550.526 247.595 540.556C249.835 519.606 249.665 498.556 249.255 477.556C248.725 449.806 248.995 422.036 249.105 394.266C249.155 388.466 249.945 382.766 250.435 377.056ZM566.575 490.306C566.955 484.456 565.435 478.676 563.435 473.046C559.275 461.326 552.105 451.506 542.935 443.316C531.815 433.386 512.315 433.656 496.715 444.066C475.839 457.808 459.923 477.885 451.305 501.346C449.495 506.146 448.645 511.236 452.445 514.886C456.245 518.536 460.895 515.886 465.255 514.306C492.985 504.246 520.695 494.936 550.915 504.116C562.085 507.536 567.095 502.456 566.525 490.306H566.575ZM739.815 270.946C741.065 270.946 744.285 271.066 747.495 270.946C749.795 270.826 753.345 272.126 753.725 268.706C754.035 265.946 750.725 265.026 748.405 264.106C736.832 259.437 724.154 258.221 711.905 260.606C694.015 263.926 677.405 271.476 660.155 276.926C641.275 282.926 622.335 288.156 602.155 284.836C594.034 283.37 586.113 280.957 578.555 277.646C571.705 274.806 565.985 278.076 565.555 284.916C565.255 289.606 568.195 292.476 571.875 294.796C582.275 301.346 594.025 302.106 605.715 301.926C632.215 301.526 657.475 295.206 681.515 284.196C699.435 275.946 717.825 270.236 739.765 270.946H739.815Z" fill="#9DB2D9"/>
<path d="M312.695 270.696C342.925 275.696 373.135 280.836 403.385 285.636C413.075 287.176 421.995 284.166 430.185 278.986C432.715 277.386 435.405 274.986 438.255 277.096C440.775 278.936 440.665 282.396 440.495 285.396C439.885 295.816 432.995 301.776 420.905 302.396C398.815 303.486 376.975 300.816 355.155 297.946C341.095 296.099 327.061 294.036 313.055 291.756C306.845 290.756 301.055 287.756 294.725 287.136C297.335 277.936 305.265 274.596 312.695 270.696Z" fill="#0A3FA0"/>
<path d="M622.234 623.755C628.394 619.355 635.104 616.655 642.834 617.065C637.574 624.235 629.434 622.505 622.234 623.755Z" fill="#0A3FA0"/>
<path d="M829.575 287.695C832.355 297.935 832.665 308.385 832.345 318.895C824.215 322.215 815.685 323.896 807.055 325.296C774.159 330.565 740.834 332.681 707.535 331.616C711.895 328.806 716.135 328.776 719.965 327.616C724.125 326.366 728.435 325.616 732.675 324.616C751.675 320.126 770.425 314.855 788.335 307.155C800.495 301.935 812.095 295.385 823.875 289.305C825.725 288.415 827.345 287.155 829.575 287.695Z" fill="#9DB2D9"/>
<path d="M834.015 330.136L833.925 345.296C816.084 348.621 797.863 349.395 779.805 347.596C762.595 346.026 745.185 345.856 727.305 341.676C734.785 339.056 742.025 339.496 748.985 338.586C755.105 337.776 761.335 337.826 767.515 337.506C785.515 336.576 803.295 334.006 821.015 330.946C825.312 330.263 829.665 329.991 834.015 330.136Z" fill="#9DB2D9"/>
<path d="M265.625 317.946C273.405 317.246 280.625 320.146 287.535 322.656C299.745 327.086 312.535 327.506 325.025 330.116C327.895 330.716 331.405 330.176 331.855 334.256C332.305 338.336 330.595 341.726 326.495 342.736C321.434 344.123 316.237 344.958 310.995 345.226C292.675 345.636 274.325 345.996 256.055 343.896C256.055 336.976 259.205 331.195 262.455 325.405C263.775 323.055 265.575 320.836 265.625 317.946Z" fill="#9DB2D9"/>
<path d="M420.114 345.215C419.944 354.355 419.474 363.466 417.114 372.366C412.804 388.856 393.034 403.895 376.174 404.875C351.974 406.275 338.924 394.465 330.174 372.715C330.874 364.275 331.604 355.855 334.634 347.825C344.634 321.445 373.924 309.025 397.734 321.825C405.334 325.925 412.404 331.636 414.934 340.986C415.524 343.146 416.534 346.125 420.114 345.215ZM403.654 360.285C403.824 345.585 389.994 332.145 374.654 332.125C360.774 332.125 346.654 346.016 346.504 359.866C346.324 375.586 358.694 389.165 373.254 389.225C391.904 389.305 403.434 378.305 403.654 360.285Z" fill="#FEFEFE"/>
<path d="M252.234 366.965C251.114 362.645 251.764 358.315 252.154 353.965C274.584 354.785 296.904 351.475 319.334 352.025C322.574 352.105 325.464 351.865 326.174 355.785C326.814 359.365 324.094 360.295 321.504 361.535C313.824 365.195 305.504 362.195 297.764 363.975C282.704 367.445 267.504 367.365 252.234 366.965Z" fill="#9DB2D9"/>
<path d="M566.524 490.305C567.094 502.455 562.084 507.535 550.864 504.115C520.644 494.935 492.934 504.245 465.204 514.305C460.844 515.875 456.204 518.575 452.394 514.885C448.584 511.195 449.444 506.145 451.254 501.345C459.871 477.885 475.788 457.808 496.664 444.065C512.264 433.655 531.764 433.385 542.884 443.315C552.054 451.505 559.224 461.315 563.384 473.045C565.434 478.675 566.904 484.455 566.524 490.305ZM484.844 472.025C478.424 477.925 474.654 485.415 471.774 493.505C470.534 497.015 471.974 497.655 474.934 497.015C481.524 495.575 487.314 492.325 493.074 489.015C496.824 486.825 500.724 483.255 504.594 483.205C519.454 483.025 535.324 476.915 548.454 489.875C551.994 493.365 556.454 490.575 556.364 486.465C556.174 479.145 555.034 471.535 548.464 466.465C544.534 457.875 538.974 451.005 529.714 447.625C512.144 441.145 494.194 453.635 484.844 472.025Z" fill="#E75703"/>
<path d="M739.764 270.946C717.824 270.236 699.394 275.946 681.454 284.156C657.454 295.156 632.154 301.486 605.654 301.886C593.964 302.066 582.214 301.306 571.814 294.756C568.134 292.436 565.194 289.566 565.494 284.876C565.924 278.036 571.644 274.766 578.494 277.606C586.052 280.917 593.973 283.33 602.094 284.796C622.284 288.116 641.224 282.856 660.094 276.886C677.344 271.436 693.954 263.886 711.844 260.566C724.093 258.181 736.771 259.397 748.344 264.066C750.634 264.986 753.974 265.906 753.664 268.666C753.284 272.086 749.734 270.786 747.434 270.906C744.234 271.066 741.014 270.946 739.764 270.946Z" fill="#0A3FA0"/>
<path d="M403.654 360.285C403.444 378.285 391.905 389.286 373.295 389.226C358.735 389.166 346.365 375.586 346.545 359.866C346.705 346.016 360.815 332.115 374.695 332.125C389.995 332.145 403.824 345.585 403.654 360.285Z" fill="#0A3FA0"/>
<path d="M484.844 472.025C494.194 453.635 512.144 441.146 529.714 447.546C538.974 450.926 544.534 457.796 548.464 466.386C536.964 472.316 524.524 474.856 511.834 476.456C509.194 476.786 506.674 478.516 503.834 477.006C497.954 473.836 491.214 473.605 484.844 472.025Z" fill="#FEFEFE"/>
<path d="M484.844 472.025C491.214 473.605 497.953 473.786 503.843 477.026C506.633 478.536 509.153 476.806 511.843 476.476C524.533 474.876 536.973 472.336 548.473 466.406C555.043 471.506 556.183 479.116 556.373 486.406C556.473 490.516 552.003 493.306 548.463 489.816C535.333 476.816 519.463 482.966 504.603 483.146C500.733 483.146 496.833 486.766 493.083 488.956C487.323 492.316 481.533 495.566 474.943 496.956C471.943 497.596 470.543 496.956 471.783 493.446C474.653 485.416 478.434 477.925 484.844 472.025Z" fill="#0A3FA0"/>
</svg>
