<svg width="787" height="795" viewBox="0 0 787 795" fill="none" xmlns="http://www.w3.org/2000/svg">
<path d="M479.355 477.73C477.745 496.98 477.715 496.39 458.645 497.47C426.205 499.29 403.235 515.62 389.455 544.98C387.605 548.91 385.765 552.84 383.855 556.74C383.775 556.91 383.045 556.74 381.855 556.74C379.855 550.55 378.085 543.93 375.585 537.59C363.815 507.72 341.585 491.13 309.905 487.65C300.325 486.65 293.745 483.65 293.275 472.98C314.905 462.82 336.075 451.98 351.815 433.13C353.595 430.99 357.715 430.67 354.965 426.2C347.965 414.7 332.675 412.65 323.275 422.04C312.635 432.67 302.105 443.45 288.275 450.14C286.667 443.216 283.267 436.836 278.415 431.64C256.128 407.64 233.885 383.59 211.685 359.49C208.105 355.62 204.815 350.69 198.455 352.87C190.965 355.45 194.455 361.96 194.675 366.6C195.485 383.38 196.975 400.12 198.365 416.87C198.955 423.95 200.765 427.4 209.885 424.93C230.725 419.31 248.435 427.72 258.005 445.68C261.565 452.38 264.385 458.68 252.155 457.9C249.565 457.74 246.015 458.24 245.595 461.1C244.835 466.22 242.365 469.22 238.105 465.99C234.305 463.11 235.275 458.48 238.335 454.19C240.835 450.69 248.975 452.68 247.145 446.61C245.145 440.09 239.075 436.09 232.735 433.74C222.735 430.05 212.445 429.97 203.255 435.46C195.115 440.33 192.255 439.55 191.605 429.54C190.395 409.68 187.785 389.9 186.675 370.03C186.095 359.48 182.105 359.16 174.255 363.4C157.945 372.21 141.445 380.67 125.125 389.46C117.725 393.46 113.865 400.63 110.295 407.73C103.545 421.15 97.295 434.82 90.635 448.29C89.245 451.11 88.8352 456.15 83.7852 454.41C80.0152 453.11 81.245 449.54 81.655 446.41C86.865 406.41 98.405 367.93 111.325 329.85C114.515 320.44 122.005 314.85 129.835 309.72C136.485 305.35 136.375 302.37 129.375 297.78C92.225 273.39 43.775 277.89 9.375 309.33C7.155 311.33 5.37518 316.93 1.55518 313.33C-2.02482 309.94 1.28499 306.66 4.36499 303.51C35.455 271.77 93.5951 260.95 132.975 291.78C140.975 298.02 146.975 297.39 153.795 290.78C159.195 285.57 165.285 281.08 170.795 276.01C173.695 273.35 177.325 270.01 175.665 265.87C174.255 262.36 169.605 262.94 166.155 262.52C143.065 259.69 119.965 256.89 96.605 251.3C117.125 247 137.605 242.4 158.165 238.47C183.752 233.57 209.398 228.993 235.105 224.74C246.005 222.93 247.465 219.25 240.435 210.55C226.805 193.69 213.885 176.35 196.755 162.55C168.445 139.78 136.945 133.35 102.015 142.37C99.4551 143.03 96.955 143.95 94.385 144.57C91.055 145.36 86.685 147.32 85.385 142.57C84.085 137.82 89.0751 137.28 92.1851 136.29C122.525 126.6 152.315 126.99 180.945 142.16C209.575 157.33 229.775 181.25 248.135 207.04C252.985 213.85 256.695 220.65 267.515 220.23C274.965 219.95 279.365 228.51 285.105 233.12C291.875 238.56 297.055 245.98 306.365 250.57C303.365 233.13 294.255 219.25 289.185 203.96C281.295 180.22 266.415 164.86 242.905 155.16C216.435 144.24 191.355 129.94 165.725 117C161.565 114.89 156.315 114.06 154.005 107.85C179.875 104.26 205.455 105.4 231.005 106.71C246.465 107.49 261.855 109.62 277.305 110.48C287.735 111.06 294.445 115.94 299.405 124.82C310.785 145.2 322.405 165.47 337.495 185.82C342.175 169.34 338.495 155.19 335.595 141.12C328.765 108.12 312.925 79.88 288.695 56.54C267.545 36.16 243.085 28.71 214.425 38.78C210.895 40.03 205.425 44.89 203.365 38.12C201.935 33.43 207.965 32.49 211.505 31.29C239.695 21.74 266.395 24.86 288.425 45.29C329.875 83.71 352.285 130.56 346.205 188.49C345.475 195.4 346.785 201.3 351.265 206.92C359.125 216.78 366.385 227.13 375.575 239.53C382.415 219.53 388.385 202.17 394.255 184.77C394.799 183.082 394.916 181.285 394.597 179.54C394.278 177.795 393.531 176.156 392.425 174.77C376.795 152.97 377.375 128.77 384.065 104.77C391.315 78.77 392.715 52.5501 391.725 25.9401C391.415 17.6801 394.945 9.42 389.895 0C394.535 3 398.045 3.37005 398.295 8.68005C399.905 42.3301 400.765 75.7801 391.785 108.81C386.395 128.67 385.275 148.59 399.445 169.16C408.835 144.95 418.445 123.26 425.605 100.79C432.345 79.63 443.365 69.6 467.175 70.01C492.045 70.44 517.005 65.3901 542.665 64.1801C535.83 73.0446 526.937 80.1086 516.755 84.76C489.265 97.62 478.555 118.86 478.665 148.58C478.775 178.3 467.545 206.63 461.935 235.67C460.935 240.8 458.815 245.73 459.825 252.36C472.105 248.86 481.965 241.48 492.375 235.57C498.375 232.18 494.375 225.9 493.665 220.97C490.405 198.06 489.295 175.08 494.285 152.39C503.645 109.72 538.395 78.9101 591.755 74.9401C599.655 74.3601 606.625 77.5 611.035 84.36C613.705 88.52 616.475 92.36 620.505 95.26C623.175 97.26 627.575 99.3801 624.005 103.47C620.665 107.29 617.675 103.26 614.875 101.55C613.005 100.41 610.815 99.15 609.795 97.36C600.505 81.06 586.345 83.36 571.525 86.64C532.525 95.4 504.765 126.41 500.135 166.12C498.135 183.38 499.235 200.44 501.365 217.55C502.505 226.66 506.705 228.61 514.775 224.04C534.385 212.93 554.315 202.38 573.825 191.11C582.175 186.28 589.185 186.37 596.975 192.24C609.335 201.55 622.505 209.79 634.735 219.24C643.095 225.7 648.735 225.47 657.595 218.52C684.785 197.15 715.355 184.52 751.055 190.01C763.355 191.89 772.505 197.76 776.645 210.12C777.56 212.606 778.757 214.978 780.215 217.19C782.215 220.32 790.565 221.78 784.965 226.53C780.965 229.92 774.055 226.42 771.705 221.53C767.705 213.28 766.705 203.13 756.095 199.99C742.145 195.85 728.015 196.73 714.095 200.12C695.935 204.56 678.945 211.52 663.875 223.12C655.005 229.96 655.485 234.43 665.115 239.06C666.695 239.83 668.115 241.06 669.715 241.68C708.345 257.37 715.715 293.68 728.295 328.11C720.565 327.29 716.065 323.65 711.645 320.16C677.595 293.16 636.915 280.82 596.645 267.42C588.785 264.81 581.735 265.42 575.645 271.09C558.545 286.95 541.585 302.96 525.985 320.57C546.795 324.35 565.125 325.65 575.725 303.74C580.625 293.61 591.365 292.28 601.925 291.08C611.865 289.95 624.235 298.02 631.465 284.38C631.695 283.96 634.335 284.04 634.825 284.67C637.605 288.28 635.615 292.33 635.445 296.22C635.295 299.84 633.395 302.22 629.705 302.05C626.225 301.87 622.785 300.87 619.325 300.26C596.275 296.18 583.215 301.9 576.245 320.85C602.735 311.92 619.875 325.85 635.455 343.18C642.315 350.81 649.685 353.9 660.185 350.53C678.549 344.467 698.472 345.141 716.385 352.43C725.445 356.01 727.845 362.72 726.905 371.59C726.545 375.02 726.695 378.52 726.265 381.94C725.265 390.31 729.365 391.03 735.725 388.51C738.965 387.23 742.015 385.34 745.345 384.51C748.285 383.73 750.785 386.01 751.595 388.4C752.405 390.79 749.895 392.14 747.775 392.93C744.875 394.023 741.948 395.023 738.995 395.93C721.315 401.5 717.585 398.73 717.795 380.25C718.035 359.25 714.225 355.34 692.915 355.44C679.335 355.5 666.285 361.66 654.105 363.36C634.945 366.03 621.325 375.2 607.105 384.82C591.845 395.15 591.965 399.38 608.755 406.1C637.005 417.39 651.755 435.51 652.505 467.19C653.005 488.95 659.375 510.57 663.295 533.29C655.615 531.89 655.465 526.35 653.665 522.38C643.785 500.66 633.765 479 624.475 457.02C621.145 449.14 616.295 445.53 607.955 444.28C596.445 442.56 584.955 443.64 573.495 443.02C568.635 442.76 566.085 444.71 565.085 449.3C564.805 450.58 563.835 451.76 563.745 453.03C562.285 473.55 557.125 489.49 530.885 480.62C529.765 480.24 527.885 482.05 526.385 482.85C524.221 482.83 522.114 482.149 520.348 480.898C518.582 479.647 517.241 477.885 516.505 475.85C522.265 473.73 527.865 471.74 534.325 472.02C549.155 472.68 557.995 462.69 556.425 448.25C556.015 444.43 554.425 442.54 550.735 442.71C530.145 443.71 509.425 439.65 488.945 444.39C483.945 441.66 482.265 436.47 479.725 431.93C477.515 427.99 475.425 425.93 470.525 429.28C453.435 440.98 452.435 447.91 466.335 463.01C470.765 467.83 475.025 472.82 479.355 477.73ZM636.185 357.07C623.765 347.89 612.085 340.98 596.735 344.84C589.035 346.77 581.145 348.89 573.305 349.05C558.715 349.35 558.715 360.69 555.835 370.05C552.495 380.85 562.955 380.35 567.905 384.05C571.735 386.95 576.445 388.66 580.665 391.05C583.755 392.82 586.555 393.05 589.005 390.2C601.795 375.68 618.435 366.4 636.185 357.07ZM529.435 361.91C530.165 365.8 533.735 366.56 536.365 367.44C539.585 368.51 543.145 373.58 546.675 368.44C548.875 365.2 551.515 360.54 549.475 357.34C546.715 353.02 542.335 357.47 538.655 358C535.315 358.42 531.735 358.76 529.435 361.91ZM308.185 252.91L307.385 251.91C307.115 252.2 306.635 252.47 306.625 252.76C306.615 253.05 307.065 253.37 307.315 253.67L308.185 252.91Z" fill="#9D0CED"/>
<path d="M232.575 610.63C296.225 664.39 347.045 655.69 381.315 584.4C389.045 620.18 407.855 645.93 442.605 654.13C477.205 662.3 507.015 650.85 531.305 618.87C528.955 634.79 537.445 637.32 546.105 639.57C574.105 646.84 600.105 658.89 625.575 672.25C640.497 680.153 653.63 691.046 664.155 704.25C688.905 734.87 677.425 776.02 640.555 789.25C633.901 791.725 626.579 791.725 619.925 789.25C601.166 782.643 583.067 774.293 565.865 764.31C527.635 742.54 487.315 728.21 442.435 729.91C429.035 730.43 416.385 734.45 403.365 736.71C397.865 737.71 395.365 741.8 394.975 747.24C394.525 753.87 394.525 760.55 393.595 767.1C392.745 773.17 394.595 776.17 400.825 776.89C404.425 777.3 409.825 776.89 408.425 783.21C407.365 787.95 405.725 792.86 399.735 793.61C397.109 794.045 394.43 794.045 391.805 793.61C377.5 790.425 362.67 790.425 348.365 793.61C341.725 795.08 335.775 794.44 334.685 785.8C333.585 777.01 340.835 778.06 345.315 777.97C358.455 777.71 361.235 772.46 361.145 759.1C361.035 741.93 353.455 736.1 338.805 731.1C295.605 716.39 255.805 719.02 218.395 747.37C198.965 762.07 177.805 773.11 151.635 772.96C114.055 772.76 100.235 742.4 107.335 714.75C110.225 703.51 115.035 692.9 122.995 684.37C147.155 658.48 175.865 640.37 211.315 634.25C231.435 630.82 231.435 630.91 232.575 610.63ZM423.005 688.91C435.365 691.12 447.745 690.07 460.115 688.99L496.975 690.64C503.425 694.39 510.655 695.26 517.835 696.33C528.045 701.82 537.725 708.4 549.075 711.54C557.635 720.6 569.335 724.45 579.945 730.09C583.605 734.76 587.605 738.79 594.265 738.09C597.265 744.35 603.265 747.84 609.015 749.78C617.205 752.52 626.955 755.86 631.595 743.55C637.725 736.94 637.115 730.08 632.055 723.32C623.425 711.78 613.105 702.48 598.575 699.04C588.295 690.96 576.875 685.33 563.925 683.04C556.295 678.13 548.065 674.93 538.925 674.52C522.725 668.92 506.285 664.77 488.925 666.68C480.985 665.8 473.065 665.17 465.195 667.17C450.295 667.17 435.365 666.01 420.545 668.51C415.254 667.183 409.729 667.087 404.395 668.23L353.435 663.91L341.655 663.69C323.825 659.69 305.825 657.48 287.515 658.63C283.185 655.95 278.585 655.98 273.865 657.25C258.525 657.9 242.945 655.86 228.035 661.32H223.585C204.935 664.16 186.925 668.56 172.585 681.95C159.055 689.07 152.985 701.55 148.815 715.31C143.815 731.94 147.665 738.53 164.815 742.83C181.385 742.7 192.815 732.96 203.615 722.05C208.554 719.543 212.719 715.741 215.665 711.05C224.665 703.89 232.815 695.67 243.065 690.18C261.065 683.63 279.655 685.45 298.175 686.49L327.305 687.07C336.925 689.83 346.695 690.07 356.555 688.78C370.725 690.39 384.895 689.59 399.065 688.78C407.003 689.888 415.055 689.931 423.005 688.91Z" fill="#9D0CED"/>
<path d="M288.254 450.16C302.064 443.47 312.594 432.69 323.254 422.06C332.654 412.67 347.894 414.72 354.944 426.22C357.694 430.69 353.574 431.01 351.794 433.15C336.054 452.04 314.884 462.84 293.254 473C272.844 477.45 252.794 485.25 229.254 479.64C246.254 472.11 261.544 465.45 276.724 458.43C280.984 456.46 285.894 454.97 288.254 450.16Z" fill="#130C30"/>
<path d="M516.583 475.81C517.32 477.845 518.661 479.607 520.427 480.858C522.193 482.109 524.299 482.79 526.464 482.81C535.914 492.12 549.894 494.09 560.974 503.56C528.244 509.04 504.663 490.66 479.353 477.76C475.023 472.85 470.763 467.86 466.353 463.04C452.423 447.89 453.433 441.04 470.623 429.27C475.523 425.93 477.623 427.98 479.823 431.92C482.363 436.46 484.054 441.65 489.044 444.37C494.434 458.18 505.093 467.34 516.583 475.81Z" fill="#130C30"/>
<path d="M322.674 569.59C322.454 576.98 318.894 579.27 313.294 579.21C307.434 579.14 304.234 575.71 304.294 570.28C304.364 564.06 308.574 560.69 314.574 561.14C320.004 561.54 323.144 565.01 322.674 569.59Z" fill="#130C30"/>
<path d="M452.224 576.03C451.864 580.68 449.164 583.81 443.224 583.93C437.284 584.05 434.084 580.74 433.814 575.36C433.504 569.11 437.554 565.36 443.524 565.58C448.884 565.73 452.204 569.26 452.224 576.03Z" fill="#130C30"/>
<path d="M308.185 252.91L307.315 253.68C307.065 253.38 306.615 253.06 306.625 252.77C306.635 252.48 307.115 252.21 307.385 251.92L308.185 252.91Z" fill="#FEFDFE"/>
<path d="M215.604 711.08C212.658 715.771 208.493 719.573 203.554 722.08C200.614 713.59 194.144 709.08 185.684 709.14C176.684 709.21 170.214 714.9 165.884 722.44C162.194 728.86 162.884 735.92 164.754 742.86C147.654 738.56 143.754 731.97 148.754 715.34C152.924 701.58 158.994 689.1 172.534 681.98C187.964 697.43 199.164 697.98 217.534 684.19L220.534 687.06C216.544 694.57 210.664 701.71 215.604 711.08Z" fill="#130C30"/>
<path d="M598.575 698.99C613.105 702.44 623.425 711.74 632.055 723.28C637.115 730.04 637.725 736.9 631.595 743.51C616.705 726.46 609.595 725.43 594.265 738.05C587.605 738.78 583.605 734.75 579.945 730.05C584.735 718.73 580.715 710.67 570.615 704.86L572.615 702.4C582.015 706.68 590.735 706.12 598.575 698.99Z" fill="#130C30"/>
<path d="M327.244 687.1L298.114 686.52C294.754 677.15 285.284 670.09 287.544 658.59C305.854 657.44 323.854 659.65 341.684 663.65C339.964 673.37 332.434 679.51 327.244 687.1Z" fill="#FEFDFE"/>
<path d="M287.545 658.59C285.285 670.09 294.755 677.15 298.115 686.52C279.595 685.52 261.015 683.66 243.005 690.21C236.485 682.34 229.075 680.72 220.545 687.04L217.545 684.17C221.375 677.03 224.405 669.69 223.545 661.33H227.995C230.155 670.59 234.915 677.83 244.995 678.72C254.585 679.55 263.435 677.15 268.575 667.72C270.455 664.3 272.075 660.72 273.805 657.23C278.615 655.91 283.215 655.91 287.545 658.59Z" fill="#130C30"/>
<path d="M353.434 663.91L404.313 668.19C404.803 675.66 402.244 682.35 398.974 688.86C384.804 689.66 370.634 690.46 356.464 688.86C352.564 680.91 352.124 672.47 353.434 663.91Z" fill="#FEFDFE"/>
<path d="M538.894 674.45C548.064 674.86 556.294 678.06 563.894 682.97C562.844 691.23 566.054 697.58 572.624 702.43L570.624 704.89C561.754 701.62 555.204 705.89 549.084 711.53C537.734 708.39 528.084 701.81 517.844 696.31C526.694 690.79 536.734 686.41 538.894 674.45Z" fill="#130C30"/>
<path d="M538.894 674.45C536.734 686.45 526.694 690.79 517.834 696.31C510.654 695.25 503.424 694.38 496.974 690.63C493.164 682.99 487.604 675.96 488.874 666.63C506.254 664.7 522.694 668.85 538.894 674.45Z" fill="#FEFDFE"/>
<path d="M223.613 661.33C224.443 669.69 221.413 677.03 217.613 684.17C199.243 697.96 188.043 697.41 172.613 681.96C186.953 668.57 204.963 664.17 223.613 661.33Z" fill="#FEFDFE"/>
<path d="M420.494 668.44C435.314 665.94 450.244 667.13 465.144 667.1C465.874 674.94 462.144 681.77 460.144 688.98C447.774 690.06 435.394 691.11 423.034 688.9C422.174 682.087 421.327 675.267 420.494 668.44Z" fill="#FEFDFE"/>
<path d="M164.754 742.84C162.834 735.9 162.194 728.84 165.884 722.42C170.214 714.88 176.724 709.19 185.684 709.12C194.144 709.06 200.614 713.57 203.554 722.06C192.754 732.97 181.324 742.71 164.754 742.84Z" fill="#FEFDFE"/>
<path d="M273.894 657.21C272.164 660.71 270.544 664.28 268.664 667.7C263.524 677.1 254.664 679.5 245.084 678.7C234.984 677.81 230.224 670.57 228.084 661.31C242.974 655.82 258.554 657.91 273.894 657.21Z" fill="#FEFDFE"/>
<path d="M460.113 688.98C462.113 681.77 465.873 674.98 465.113 667.1C472.983 665.1 480.903 665.73 488.843 666.61C487.573 675.96 493.133 682.99 496.943 690.61L460.113 688.98Z" fill="#130C30"/>
<path d="M594.265 738.05C609.615 725.43 616.705 726.46 631.595 743.51C626.955 755.82 617.206 752.51 609.016 749.74C603.246 747.8 597.295 744.31 594.265 738.05Z" fill="#FEFDFE"/>
<path d="M353.434 663.91C352.094 672.51 352.534 680.91 356.434 688.86C346.574 690.1 336.804 689.86 327.184 687.14C332.364 679.55 339.904 673.41 341.624 663.69L353.434 663.91Z" fill="#130C30"/>
<path d="M549.074 711.53C555.194 705.89 561.745 701.62 570.615 704.89C580.715 710.7 584.734 718.76 579.944 730.08C569.334 724.44 557.634 720.59 549.074 711.53Z" fill="#FEFDFE"/>
<path d="M572.664 702.43C566.094 697.58 562.884 691.23 563.934 682.97C576.874 685.29 588.294 690.97 598.574 698.97C590.734 706.12 582.014 706.68 572.664 702.43Z" fill="#FEFDFE"/>
<path d="M420.494 668.44C421.321 675.26 422.157 682.08 423.004 688.9C415.036 689.948 406.964 689.921 399.004 688.82C402.274 682.31 404.834 675.62 404.344 668.15C409.679 667.015 415.203 667.115 420.494 668.44Z" fill="#130C30"/>
<path d="M220.545 687.04C229.075 680.72 236.485 682.34 243.005 690.21C232.755 695.7 224.584 703.92 215.604 711.08C210.664 701.71 216.545 694.57 220.545 687.04Z" fill="#FEFDFE"/>
</svg>
