<svg width="673" height="803" viewBox="0 0 673 803" fill="none" xmlns="http://www.w3.org/2000/svg">
<path d="M108.578 22.4833C108.958 17.2233 105.358 13.3632 103.788 8.7932C102.218 4.2232 100.398 -0.136717 94.4678 0.00328306C88.2478 0.153283 86.2878 4.8432 85.0078 9.6632C82.3878 19.5732 79.5678 29.4632 77.8178 39.5432C74.0778 61.0432 76.4978 82.8632 75.3478 104.543L70.9678 104.043C68.3878 93.7532 65.8178 83.4533 62.8278 71.4733C57.1537 82.2009 53.615 93.9276 52.4078 106.003C48.7778 137.613 52.9078 168.003 66.7478 196.913C61.2578 200.113 55.1978 197.453 49.5078 198.603C39.7578 197.783 30.5078 199.093 21.6278 204.943C25.6278 206.403 29.2078 207.593 32.6278 208.943C51.7078 216.523 62.6278 233.443 60.1378 251.623C57.4978 271.223 42.4878 284.973 21.4778 287.113C18.2478 287.443 14.9978 287.823 11.8178 288.463C10.0078 288.833 7.94784 289.693 7.63784 291.743C7.32784 293.793 9.41783 294.263 10.7578 295.103C16.9448 298.947 23.8595 301.469 31.0678 302.513L50.8378 305.663C50.5757 306.35 50.2684 307.018 49.9178 307.663C7.91784 367.743 -5.16218 434.873 1.74782 506.763C2.95782 519.293 5.23782 531.693 11.7478 543.293C16.4278 538.893 17.1178 532.803 20.8478 528.633C21.7278 527.633 23.0278 526.383 24.1278 526.393C25.9378 526.393 25.4878 528.453 25.8178 529.703C29.0878 542.153 31.9478 554.703 35.6778 567.043C43.0978 591.503 54.7978 613.343 75.8778 629.043C102.278 688.533 146.428 732.043 201.878 763.683C257.328 795.323 318.148 806.603 381.998 800.843C423.86 797.024 464.427 784.329 500.998 763.603C563.868 728.343 608.578 676.383 636.108 609.813C647.283 583.003 653.992 554.543 655.968 525.563L657.668 523.643C663.288 522.553 662.518 517.153 664.468 513.583C665.872 511.16 666.853 508.516 667.368 505.763C675.758 467.003 673.488 428.493 665.048 390.073C650.378 323.293 613.638 270.233 563.048 225.823C554.428 218.263 545.748 210.723 536.048 204.443C534.298 203.313 532.048 202.033 532.538 199.683C533.028 197.333 535.708 198.413 537.348 198.163C544.058 197.163 550.828 196.513 557.548 195.523C569.208 193.813 580.738 191.613 592.008 184.633C587.538 183.173 584.288 181.773 580.898 181.053C561.408 176.933 544.578 167.803 529.588 154.813C524.128 150.093 518.078 145.893 511.118 143.513C483.278 134.003 454.578 130.913 425.308 132.293C421.21 130.509 416.776 129.629 412.308 129.713C397.538 129.713 382.758 129.513 367.998 129.843C361.498 129.993 355.098 130.953 348.548 129.773C343.118 128.773 342.778 126.543 345.758 122.773C356.078 109.773 359.238 94.1933 361.568 78.3633C361.911 76.7189 361.617 75.0055 360.744 73.5702C359.872 72.1348 358.486 71.085 356.868 70.6333C353.298 69.4433 351.128 71.7132 349.498 74.5232C348.438 76.3432 347.578 78.2733 346.548 80.1233C340.992 90.1945 333.805 99.2744 325.278 106.993C304.928 125.223 280.388 133.543 253.778 136.543C237.498 138.383 230.838 134.373 223.148 119.633C218.508 110.723 216.878 101.073 215.668 91.3032C215.308 88.4132 215.088 85.4432 211.798 84.5232C208.278 83.5232 205.628 85.0032 203.338 87.9532C196.316 96.7752 191.189 106.95 188.278 117.843C186.108 126.143 185.798 126.373 178.818 120.843C157.166 103.853 139.43 82.3958 126.818 57.9332C120.768 46.1332 115.828 33.7133 108.578 22.4833Z" fill="#FEFEFE"/>
<path d="M655.968 525.563C654.005 554.551 647.306 583.021 636.138 609.843C608.608 676.413 563.898 728.373 501.028 763.633C464.457 784.359 423.89 797.054 382.028 800.873C318.178 806.633 257.498 795.463 201.908 763.713C146.318 731.963 102.268 688.563 75.9078 629.063C81.2078 627.323 81.2679 624.143 79.7479 619.203C72.8779 596.933 65.7478 574.453 63.1978 551.393C59.3378 517.023 57.1378 482.393 62.5978 447.803C66.3678 456.483 69.8378 465.293 73.9878 473.803C77.0678 480.083 81.0778 485.883 89.0878 486.673C93.5478 484.993 95.4578 481.333 96.0078 477.013C96.7178 471.453 97.0078 465.823 97.4778 460.233C99.0978 441.583 99.7479 422.773 102.558 404.303C108.498 365.173 123.688 329.323 143.968 295.563C145.118 296.313 146.288 297.053 147.418 297.833C156.638 304.143 163.648 313.193 172.918 319.263C183.918 326.453 196.168 331.263 208.728 335.203C227.658 341.203 246.908 344.203 266.728 341.803C270.838 341.313 275.188 340.803 277.158 336.183C279.288 332.413 278.158 329.833 274.738 327.303C264.618 319.803 257.058 309.983 250.658 299.303C246.128 291.733 242.448 283.763 240.798 275.103C241.438 274.783 241.658 274.573 241.798 274.613C242.686 274.877 243.552 275.212 244.388 275.613C280.708 294.613 306.208 324.173 326.078 359.243C326.518 360.043 326.658 361.003 327.078 361.843C331.937 372.585 337.583 382.953 343.968 392.863C345.788 395.163 347.478 398.863 350.758 397.503C353.558 396.323 352.248 392.413 352.008 389.853C350.448 373.463 350.888 356.853 346.588 340.743C345.648 337.193 345.158 333.343 347.978 330.103L382.178 350.453C395.008 358.083 407.038 366.903 419.348 375.303C427.938 381.163 436.638 386.663 443.888 394.173C436.208 399.063 427.068 401.553 420.268 407.813C399.328 427.073 386.178 450.813 378.908 478.303C373.027 500.461 374.398 523.92 382.818 545.243C390.878 565.893 405.818 583.593 427.508 592.823C447.098 601.153 466.258 600.733 485.388 589.723C496.608 583.263 504.748 574.413 511.738 564.163C528.738 539.163 538.738 512.163 533.408 481.473C531.488 470.473 527.508 459.853 524.468 449.063C529.218 443.403 530.188 437.133 528.108 430.063C517.868 395.233 504.398 361.803 485.718 330.583L488.668 327.323C489.361 327.403 490.037 327.596 490.668 327.893C519.898 348.473 550.008 367.893 573.458 395.643C589.358 414.443 604.758 433.723 615.878 455.643C625.878 475.483 636.498 495.123 644.878 515.793C646.898 520.643 650.328 524.533 655.968 525.563ZM464.758 623.473C461.889 622.442 458.782 622.271 455.818 622.983C441.918 626.203 428.598 631.283 415.038 635.553C389.348 643.663 363.358 645.843 336.958 640.053C318.178 635.923 300.398 628.843 282.868 621.053C275.728 617.893 268.328 615.813 260.558 619.173C251.158 622.983 247.428 628.483 247.808 639.173C248.808 668.353 262.368 691.173 284.318 709.543C287.628 712.313 290.548 715.953 295.318 716.613C295.853 718.438 297.052 719.997 298.678 720.983C315.028 732.933 333.038 740.983 353.358 742.743C377.968 744.893 400.498 737.323 421.968 726.173C426.753 723.616 430.604 719.607 432.968 714.723C456.048 703.953 480.378 660.143 477.348 634.813C476.498 627.453 473.138 624.423 464.758 623.473ZM327.118 504.143C327.608 469.143 312.858 438.033 288.478 411.653C283.483 406.164 277.431 401.74 270.685 398.647C263.938 395.554 256.637 393.855 249.218 393.653C224.308 392.883 206.678 406.423 193.428 424.763C168.428 459.303 159.228 497.243 176.028 538.583C185.258 561.303 198.578 580.493 221.448 591.733C242.838 602.243 263.258 601.363 283.238 588.163C312.748 568.693 327.578 541.503 327.118 504.143Z" fill="#FAE94D"/>
<path d="M485.728 330.573C504.408 361.793 517.878 395.223 528.118 430.053C530.198 437.133 529.228 443.403 524.478 449.053C515.568 447.793 508.478 442.863 501.538 437.633C482.308 423.163 464.188 407.223 443.898 394.163C436.648 386.653 427.948 381.163 419.358 375.293C407.048 366.893 395.018 358.073 382.188 350.443L347.968 330.103C344.215 325.08 341.356 319.448 339.518 313.453C336.884 304.467 333.381 295.759 329.058 287.453C320.168 270.673 308.488 256.503 289.888 250.333C280.078 247.073 269.888 247.223 261.678 255.563C266.518 255.163 270.948 256.883 275.528 257.563C291.628 259.813 304.398 267.173 312.988 281.563C320.988 294.923 326.128 309.413 331.748 323.753C337.088 337.393 338.348 352.123 343.048 366.033C345.878 374.363 346.788 383.803 343.958 392.833C337.559 382.898 331.904 372.503 327.038 361.733C326.668 360.893 326.528 359.933 326.038 359.133C306.168 324.063 280.668 294.493 244.348 275.503C243.512 275.102 242.646 274.767 241.758 274.503C241.618 274.503 241.398 274.673 240.758 274.993C242.408 283.653 246.088 291.623 250.618 299.193C257.018 309.913 264.618 319.733 274.698 327.193C278.098 329.723 279.248 332.303 277.118 336.073L270.268 334.783C241.558 329.293 212.588 325.533 187.268 308.283C169.068 295.873 151.078 283.723 136.608 266.803C132.018 261.433 128.998 253.733 120.708 252.153C119.128 254.693 120.708 256.593 121.438 258.393C126.568 272.153 136.198 283.213 143.888 295.453C123.688 329.323 108.498 365.173 102.548 404.323C99.7378 422.793 99.0878 441.603 97.4678 460.253C96.9778 465.843 96.7079 471.473 95.9979 477.033C95.4479 481.353 93.5378 485.033 89.0778 486.693C85.0278 473.523 81.3379 460.243 76.8679 447.223C65.7479 414.873 64.2978 382.013 69.9378 348.473C70.9978 342.163 74.2378 336.923 75.7478 331.253C77.8098 323.625 80.42 316.156 83.5579 308.903C84.6779 306.273 86.3678 303.693 85.6578 299.903C80.9378 303.653 77.3578 307.463 74.8178 312.333C70.0178 321.513 68.8178 332.333 64.0178 340.993C57.6578 352.433 57.9278 364.223 56.7978 376.093C54.4678 400.313 61.7378 423.843 62.5878 447.853C57.1278 482.413 59.3278 517.073 63.1878 551.443C65.7678 574.503 72.8678 596.983 79.7378 619.253C81.2578 624.193 81.1978 627.373 75.8978 629.113C54.8078 613.443 43.1078 591.603 35.6878 567.113C31.9578 554.803 29.0978 542.223 25.8278 529.773C25.4978 528.523 25.9478 526.463 24.1378 526.463C23.0378 526.463 21.7378 527.713 20.8578 528.703C17.1278 532.873 16.4378 538.963 11.7578 543.363C5.28784 531.763 3.00784 519.363 1.75784 506.833C-5.15216 434.943 7.88782 367.833 49.9278 307.733C50.2784 307.088 50.5858 306.42 50.8478 305.733L31.0778 302.583C23.8695 301.539 16.9548 299.017 10.7678 295.173C9.42782 294.333 7.33782 293.743 7.64782 291.813C7.95782 289.883 10.0178 288.903 11.8278 288.533C15.0078 287.893 18.2578 287.533 21.4878 287.183C42.4878 285.043 57.4878 271.293 60.1478 251.693C62.5978 233.513 51.7178 216.593 32.6378 209.013C29.1678 207.633 25.6378 206.443 21.6378 205.013C30.5078 199.163 39.7678 197.853 49.5178 198.673C49.9778 199.193 50.3378 199.893 50.9178 200.213C70.3278 211.023 83.8578 227.403 94.7278 246.323C95.6478 247.913 96.9378 249.323 99.0878 252.153C95.5778 227.983 83.2678 211.233 66.7578 196.983C52.9178 168.113 48.7578 137.683 52.4178 106.073C53.625 93.9976 57.1637 82.2708 62.8378 71.5432C65.8378 83.5432 68.3978 93.8233 70.9778 104.113C68.4378 106.423 69.2878 109.313 69.8878 111.973C74.0378 130.453 83.6878 145.403 99.1678 156.413C104.768 160.413 110.718 163.793 118.818 164.413C116.548 159.543 113.128 156.983 110.158 154.143C96.1578 140.693 82.1578 127.253 77.5978 107.143C77.3778 106.143 76.1278 105.413 75.3578 104.563C76.5078 82.9132 74.0878 61.0932 77.8278 39.5632C79.5778 29.4832 82.3978 19.5632 85.0178 9.68321C86.2978 4.86321 88.2578 0.17318 94.4778 0.0231804C100.408 -0.11682 102.228 4.24322 103.798 8.81322C105.368 13.3832 108.968 17.2433 108.588 22.5033C106.188 25.5033 107.528 28.6332 108.338 31.7932C111.632 44.4694 116.046 56.828 121.528 68.7233C139.438 108.173 167.018 138.123 207.308 155.413C219.518 160.543 232.299 164.193 245.378 166.283C230.468 155.203 213.498 150.403 200.788 137.013C202.948 136.883 203.948 136.523 204.658 136.823C215.498 141.423 226.898 143.663 238.498 145.273C264.848 148.943 289.128 144.273 310.788 128.083C316.268 123.973 320.968 119.083 325.788 114.313C327.198 112.893 328.788 111.913 330.788 112.773C332.788 113.633 332.338 115.493 332.318 117.073C332.405 121.516 332.242 125.959 331.828 130.383C330.638 139.383 333.978 143.503 343.198 143.513C366.858 143.553 390.524 143.553 414.198 143.513C423.128 143.513 425.108 141.513 425.368 132.303C454.638 130.923 483.368 134.013 511.178 143.523C518.178 145.903 524.178 150.103 529.648 154.823C544.648 167.823 561.468 176.943 580.958 181.063C584.348 181.783 587.598 183.183 592.068 184.643C580.798 191.643 569.268 193.823 557.608 195.533C550.888 196.533 544.118 197.133 537.408 198.173C535.768 198.423 533.118 197.263 532.598 199.693C532.078 202.123 534.358 203.323 536.108 204.453C545.768 210.733 554.448 218.273 563.108 225.833C613.748 270.243 650.488 323.303 665.108 390.083C673.548 428.503 675.818 467.013 667.428 505.773C666.913 508.526 665.932 511.17 664.528 513.593C663.728 512.803 662.388 512.123 662.208 511.203C658.328 491.813 651.708 473.323 645.208 454.663C639.748 438.893 633.808 423.343 625.408 409.223C616.348 393.993 609.938 377.123 596.208 364.403C589.788 358.403 586.438 348.603 579.958 341.813C567.818 329.133 555.408 316.713 543.098 304.183C541.098 302.183 539.098 301.973 536.968 303.983C534.618 306.193 535.628 307.983 537.388 309.983C540.048 312.983 542.528 316.033 545.128 319.033C561.008 337.323 574.408 357.503 588.728 376.973C594.378 384.653 598.398 393.523 603.538 401.613C619.778 427.183 630.538 455.513 644.058 482.463C650.468 495.253 653.258 509.863 657.688 523.653L655.988 525.573C650.328 524.573 646.898 520.653 644.918 515.793C636.508 495.123 625.918 475.483 615.918 455.643C604.798 433.703 589.398 414.423 573.498 395.643C550.048 367.923 519.938 348.473 490.708 327.893C490.077 327.596 489.401 327.403 488.708 327.323C484.222 324.791 480.494 321.108 477.908 316.653C464.608 295.483 446.968 277.953 430.608 259.323C429.068 257.563 427.458 255.643 424.758 256.063C420.648 256.703 418.408 254.063 415.808 251.603C404.753 241.179 391.112 233.901 376.298 230.523C378.218 234.523 380.928 236.293 383.638 238.113C400.528 249.443 416.248 262.113 430.278 276.963C442.998 290.443 456.128 303.663 465.158 319.863C470.158 328.823 476.178 332.153 485.728 330.573Z" fill="#B7B200"/>
<path d="M327.118 504.143C327.578 541.503 312.748 568.693 283.238 588.143C263.238 601.343 242.838 602.223 221.448 591.713C198.578 580.473 185.258 561.283 176.028 538.563C159.228 497.223 168.468 459.283 193.428 424.743C206.678 406.403 224.308 392.863 249.218 393.633C256.637 393.835 263.938 395.534 270.685 398.627C277.431 401.72 283.483 406.144 288.478 411.633C312.858 438.033 327.608 469.113 327.118 504.143ZM209.798 506.433C209.548 543.863 237.798 560.793 264.098 561.053C293.718 561.353 317.658 536.863 317.408 507.213C317.158 478.663 291.408 452.763 263.588 453.063C233.328 453.393 209.568 476.963 209.798 506.433Z" fill="#FEFEFE"/>
<path d="M443.898 394.173C464.188 407.233 482.308 423.173 501.538 437.643C508.538 442.873 515.538 447.803 524.478 449.063C527.478 459.853 531.478 470.483 533.418 481.473C538.778 512.153 528.768 539.213 511.748 564.163C504.748 574.413 496.618 583.263 485.398 589.723C466.268 600.723 447.108 601.153 427.518 592.823C405.808 583.593 390.888 565.893 382.828 545.243C374.428 523.921 373.076 500.47 378.968 478.323C386.238 450.843 399.388 427.093 420.328 407.833C427.078 401.553 436.218 399.063 443.898 394.173ZM439.988 454.173C409.798 453.863 385.678 476.883 385.278 506.343C385.16 513.507 386.465 520.622 389.116 527.278C391.768 533.934 395.713 539.997 400.724 545.117C405.736 550.237 411.713 554.312 418.31 557.106C424.908 559.9 431.994 561.357 439.158 561.393C467.698 561.613 492.628 537.773 492.908 510.003C493.238 477.193 471.728 454.503 439.968 454.183L439.988 454.173Z" fill="#FEFEFE"/>
<path d="M295.298 716.683C290.548 716.023 287.628 712.383 284.298 709.613C262.298 691.273 248.828 668.423 247.788 639.243C247.408 628.503 251.138 623.003 260.538 619.243C263.618 635.733 273.018 647.893 287.298 655.913C338.098 684.423 389.118 684.273 439.888 655.783C452.558 648.673 461.578 638.223 464.738 623.523C473.118 624.523 476.478 627.523 477.368 634.863C480.368 660.193 456.068 704.003 432.988 714.773C430.438 708.373 427.128 702.313 421.468 698.303C398.668 682.173 373.538 675.063 345.828 681.223C324.288 685.963 306.238 696.433 295.298 716.683Z" fill="#0C0B08"/>
<path d="M295.298 716.683C306.238 696.433 324.298 685.963 345.848 681.173C373.558 675.013 398.688 682.123 421.488 698.253C427.148 702.253 430.488 708.323 433.008 714.723C430.644 719.607 426.793 723.615 422.008 726.173C400.498 737.303 378.008 744.893 353.338 742.813C333.018 741.093 315.008 733.003 298.658 721.053C297.032 720.067 295.833 718.508 295.298 716.683Z" fill="#E8859C"/>
<path d="M464.758 623.473C461.598 638.173 452.578 648.623 439.908 655.733C389.138 684.223 338.118 684.373 287.318 655.863C273.038 647.863 263.638 635.683 260.558 619.193C268.328 615.833 275.728 617.913 282.868 621.073C300.398 628.843 318.178 635.923 336.958 640.073C363.358 645.863 389.348 643.683 415.038 635.573C428.598 631.303 441.918 626.223 455.818 623.003C458.78 622.285 461.887 622.448 464.758 623.473Z" fill="#FEFEFE"/>
<path d="M425.318 132.323C425.058 141.493 423.078 143.523 414.148 143.533C390.481 143.533 366.814 143.533 343.148 143.533C333.928 143.533 330.588 139.383 331.778 130.403C332.192 125.979 332.355 121.536 332.268 117.093C332.268 115.513 332.648 113.603 330.738 112.793C328.828 111.983 327.138 112.913 325.738 114.333C320.968 119.153 316.268 123.993 310.738 128.103C289.078 144.313 264.798 148.963 238.448 145.293C226.848 143.683 215.448 141.443 204.608 136.843C203.898 136.543 202.898 136.903 200.738 137.033C213.448 150.423 230.418 155.223 245.328 166.303C232.249 164.213 219.468 160.563 207.258 155.433C166.968 138.143 139.388 108.193 121.478 68.7433C115.996 56.8481 111.582 44.4895 108.288 31.8132C107.478 28.6532 106.138 25.5632 108.538 22.5232C115.788 33.7532 120.728 46.1733 126.838 57.9933C139.45 82.4559 157.186 103.913 178.838 120.903C185.838 126.413 186.128 126.183 188.298 117.903C191.209 107.01 196.336 96.8352 203.358 88.0132C205.648 85.0132 208.298 83.6033 211.818 84.5833C215.108 85.5033 215.328 88.4733 215.688 91.3633C216.898 101.133 218.528 110.783 223.168 119.693C230.858 134.433 237.518 138.443 253.798 136.603C280.408 133.603 304.948 125.283 325.298 107.053C333.825 99.3343 341.012 90.2544 346.568 80.1832C347.568 78.3332 348.458 76.4033 349.518 74.5833C351.148 71.7733 353.318 69.5032 356.888 70.6932C358.506 71.1449 359.892 72.1948 360.764 73.6301C361.637 75.0655 361.931 76.7789 361.588 78.4232C359.258 94.2532 356.098 109.813 345.778 122.833C342.778 126.603 343.138 128.833 348.568 129.833C355.118 131.013 361.518 130.053 368.018 129.903C382.778 129.573 397.558 129.813 412.328 129.773C416.791 129.681 421.221 130.551 425.318 132.323Z" fill="#D3C800"/>
<path d="M657.688 523.643C653.258 509.853 650.468 495.243 644.058 482.453C630.568 455.453 619.778 427.173 603.538 401.603C598.398 393.513 594.378 384.603 588.728 376.963C574.408 357.493 560.968 337.323 545.128 319.023C542.528 316.023 540.048 312.923 537.388 309.973C535.628 307.973 534.618 306.183 536.968 303.973C539.108 301.973 541.148 302.183 543.098 304.173C555.408 316.703 567.818 329.123 579.958 341.803C586.438 348.593 589.788 358.443 596.208 364.393C609.938 377.113 616.348 393.983 625.408 409.213C633.808 423.333 639.748 438.883 645.208 454.653C651.668 473.313 658.288 491.803 662.208 511.193C662.388 512.113 663.728 512.793 664.528 513.583C662.538 517.153 663.308 522.553 657.688 523.643Z" fill="#D3C800"/>
<path d="M75.3478 104.513C76.1178 105.363 77.3478 106.113 77.5878 107.093C82.0978 127.163 96.1078 140.603 110.148 154.093C113.148 156.933 116.538 159.493 118.808 164.363C110.708 163.733 104.758 160.363 99.1578 156.363C83.6778 145.363 74.0278 130.363 69.8778 111.923C69.2778 109.263 68.4278 106.373 70.9678 104.063L75.3478 104.513Z" fill="#D3C800"/>
<path d="M66.7478 196.883C83.2578 211.133 95.5678 227.883 99.0778 252.053C96.9278 249.203 95.6378 247.813 94.7178 246.223C83.8478 227.303 70.3178 210.923 50.9078 200.113C50.3278 199.793 49.9678 199.113 49.5078 198.573C55.1978 197.423 61.2578 200.083 66.7478 196.883Z" fill="#D3C800"/>
<path d="M143.968 295.563C136.278 283.323 126.648 272.263 121.518 258.503C120.838 256.703 119.208 254.803 120.788 252.263C129.078 253.843 132.098 261.543 136.688 266.913C151.158 283.833 169.148 295.983 187.348 308.393C212.658 325.643 241.628 329.393 270.348 334.893L277.198 336.183C275.198 340.833 270.878 341.313 266.768 341.803C246.918 344.183 227.668 341.173 208.768 335.203C196.208 331.203 183.938 326.453 172.958 319.263C163.688 313.193 156.678 304.143 147.458 297.833C146.288 297.053 145.118 296.323 143.968 295.563Z" fill="#D3C800"/>
<path d="M62.5878 447.803C61.7378 423.803 54.4678 400.263 56.7978 376.043C57.9278 364.173 57.6578 352.383 64.0178 340.943C68.8378 332.293 70.0178 321.463 74.8178 312.283C77.3578 307.413 80.9378 303.603 85.6578 299.853C86.3678 303.653 84.6579 306.233 83.5579 308.853C80.42 316.106 77.8098 323.575 75.7478 331.203C74.2378 336.873 70.9978 342.113 69.9378 348.423C64.2978 381.963 65.7479 414.823 76.8679 447.173C81.3379 460.173 85.0278 473.473 89.0778 486.643C81.0778 485.853 77.0778 480.053 73.9778 473.773C69.8278 465.323 66.3578 456.483 62.5878 447.803Z" fill="#D3C800"/>
<path d="M343.968 392.863C346.798 383.863 345.888 374.393 343.058 366.063C338.358 352.153 337.058 337.423 331.758 323.783C326.138 309.443 320.958 294.953 312.998 281.593C304.408 267.173 291.638 259.813 275.538 257.593C270.958 256.953 266.538 255.233 261.688 255.593C269.938 247.253 280.088 247.103 289.898 250.363C308.498 256.533 320.178 270.703 329.068 287.483C333.391 295.789 336.894 304.497 339.528 313.483C341.367 319.467 344.222 325.089 347.968 330.103C345.148 333.343 345.638 337.193 346.578 340.743C350.878 356.853 350.438 373.463 351.998 389.853C352.238 392.413 353.548 396.323 350.748 397.503C347.488 398.883 345.798 395.163 343.968 392.863Z" fill="#D3C800"/>
<path d="M485.728 330.573C476.178 332.153 470.158 328.823 465.158 319.863C456.158 303.663 442.998 290.443 430.278 276.963C416.278 262.083 400.528 249.443 383.638 238.113C380.928 236.293 378.218 234.513 376.298 230.523C391.112 233.901 404.753 241.179 415.808 251.603C418.408 254.033 420.648 256.703 424.758 256.063C427.458 255.643 429.068 257.563 430.608 259.323C446.938 277.953 464.608 295.483 477.868 316.623C480.45 321.089 484.179 324.783 488.668 327.323L485.728 330.573Z" fill="#D3C800"/>
<path d="M209.798 506.433C209.568 476.963 233.328 453.433 263.588 453.063C291.418 452.763 317.158 478.663 317.408 507.213C317.658 536.863 293.718 561.353 264.098 561.053C237.798 560.793 209.548 543.863 209.798 506.433Z" fill="#B7B200"/>
<path d="M439.968 454.183C471.708 454.503 493.218 477.183 492.888 510.013C492.608 537.783 467.678 561.623 439.138 561.403C431.973 561.365 424.886 559.905 418.289 557.108C411.693 554.311 405.716 550.233 400.707 545.11C395.697 539.987 391.754 533.92 389.105 527.263C386.457 520.605 385.156 513.487 385.278 506.323C385.678 476.893 409.798 453.873 439.968 454.183Z" fill="#B7B200"/>
</svg>
