<svg width="548" height="773" viewBox="0 0 548 773" fill="none" xmlns="http://www.w3.org/2000/svg">
<path d="M421.561 214.972C454.141 255.892 451.372 300.672 431.882 344.762C420.741 369.972 399.681 387.762 369.771 389.762C364.271 390.132 362.241 392.762 360.301 396.932C349.131 421.272 344.582 447.562 337.682 473.152C317.192 549.152 311.681 626.632 313.851 704.942C310.875 710.009 306.24 713.894 300.731 715.942C288.281 720.942 275.132 715.282 260.672 698.412C257.002 687.522 250.601 677.892 244.561 668.412C227.131 641.122 209.291 614.082 188.621 588.962C179.271 577.602 165.991 570.622 157.621 558.222C155.361 554.892 148.411 553.952 144.191 550.892C139.111 547.202 133.921 542.892 136.051 535.822C138.131 528.932 144.822 529.062 150.652 528.822C174.072 527.822 197.272 531.462 220.652 532.242C222.002 532.292 223.352 532.242 226.132 532.242C203.662 505.802 180.061 484.242 143.601 484.972C141.261 484.972 138.921 485.102 136.601 484.972C126.971 484.462 122.981 479.342 126.791 470.482C131.041 460.622 136.681 451.352 141.791 441.882C149.151 428.292 156.791 414.812 163.991 401.162C167.832 394.041 170.666 386.421 172.412 378.522C157.752 385.522 144.581 391.902 131.251 398.012C108.141 408.592 84.6314 418.012 59.0414 420.822C40.4114 422.822 23.9514 417.992 9.76138 405.632C-3.51862 394.082 -3.23859 384.122 10.5414 373.332C23.8114 362.972 38.8914 356.062 54.5414 350.332C87.3814 338.332 119.361 323.862 153.731 316.202C163.051 314.132 163.542 311.302 157.172 304.452C125.652 270.542 131.691 212.862 169.531 186.292C173.111 183.772 176.801 181.372 179.271 177.602C186.171 177.442 192.322 180.282 198.662 182.402C194.482 184.472 190.232 186.402 186.132 188.622C163.011 201.182 149.421 220.622 148.581 246.852C147.651 275.852 160.511 298.852 186.971 311.362C213.431 323.872 239.122 321.192 261.632 300.752C263.452 299.092 265.171 296.152 268.061 297.142C270.281 297.912 269.281 300.742 269.511 302.632C275.051 347.042 310.831 377.512 355.201 375.512C398.301 373.572 429.441 341.152 430.761 296.022C431.761 261.862 416.082 236.912 385.642 222.202C355.642 207.692 326.741 210.922 300.371 231.962C295.491 235.852 290.791 239.962 285.371 244.502C284.471 240.812 283.861 238.262 283.221 235.732C276.311 208.052 259.581 190.102 231.451 183.442C227.451 182.512 223.451 181.712 219.501 180.852C226.451 176.052 234.501 173.502 241.991 169.792C258.471 172.022 271.131 180.062 280.121 194.152C282.221 197.452 283.511 201.652 287.601 203.442C287.771 205.442 287.881 207.442 288.111 209.442C288.691 214.352 286.312 222.002 291.912 223.082C296.912 224.082 300.441 217.442 302.621 212.282C303.621 211.982 304.902 211.872 304.152 210.282L304.011 210.422C315.011 206.912 324.681 200.282 336.061 197.492C348.76 194.208 361.877 192.832 374.981 193.412C387.981 205.972 403.051 214.222 421.561 214.972Z" fill="#D1024A"/>
<path d="M302.561 212.292C300.381 217.452 296.841 224.052 291.851 223.092C286.251 222.012 288.631 214.362 288.051 209.452C287.821 207.452 287.711 205.452 287.541 203.452C299.481 153.552 318.331 106.682 350.221 66.0117C375.221 34.0817 407.121 11.3816 447.221 2.56164C509.101 -11.0484 542.361 31.8817 547.301 76.7817C550.111 102.282 544.821 125.912 524.861 143.902C508.581 158.592 489.211 163.362 467.801 158.392C448.461 153.902 436.311 140.172 434.381 121.462C432.171 99.9817 443.271 79.4617 461.881 70.8917C471.881 66.2817 482.161 63.8116 493.311 66.8016C498.631 68.2216 503.071 69.8017 501.781 76.4817C500.521 82.9517 495.641 83.7217 490.311 82.7717C469.091 79.0217 457.511 90.9917 452.451 103.522C445.011 121.952 454.771 138.972 474.261 143.182C505.611 149.942 525.711 126.942 530.871 99.4116C537.501 64.0116 520.461 22.1916 472.481 16.0516C454.161 13.7016 436.771 20.5617 420.421 28.4817C397.111 39.7717 378.061 56.5717 362.551 77.1317C333.739 115.142 313.616 159.009 303.601 205.642C303.251 207.232 302.061 208.962 303.981 210.402L304.121 210.262C301.951 209.682 302.751 211.342 302.561 212.292Z" fill="#3F0A46"/>
<path d="M260.681 698.422C275.141 715.292 288.291 720.992 300.741 715.952C306.25 713.904 310.885 710.019 313.861 704.952C321.101 699.592 328.391 694.292 335.571 688.842C339.781 685.652 344.011 682.502 349.141 681.022C365.301 676.362 374.081 684.022 372.421 700.492C370.161 722.882 362.041 742.872 348.951 760.962C341.711 770.962 335.131 772.622 323.951 767.572C316.401 764.152 310.141 758.922 304.011 753.482C296.251 746.602 288.811 746.992 282.081 754.832C278.081 759.482 274.661 764.642 269.801 768.482C262.851 773.982 256.221 774.402 250.181 768.002C229.741 746.372 216.471 720.632 208.581 692.002C207.581 688.242 209.581 685.922 212.781 684.322C218.121 681.662 223.391 681.842 228.781 684.272C239.391 689.112 250.051 693.742 260.681 698.422Z" fill="#B01A09"/>
<path d="M421.561 214.972C403.041 214.192 387.972 205.972 374.952 193.352C361.711 175.932 352.203 155.97 347.022 134.712C345.731 129.388 345.309 123.89 345.772 118.432C351.482 121.232 354.572 125.432 357.832 129.342C368.412 142.122 379.092 154.812 389.402 167.812C402.722 184.592 420.032 194.152 440.922 198.002C445.212 198.792 452.442 198.002 452.592 203.222C452.712 207.942 445.882 209.912 441.242 211.222C434.842 212.972 428.141 213.792 421.561 214.972Z" fill="#3F0A46"/>
<path d="M198.631 182.402C192.291 180.282 186.141 177.402 179.241 177.602C174.001 173.962 168.691 170.412 163.571 166.602C161.491 165.062 159.291 163.002 160.501 160.002C161.711 157.002 164.271 156.852 167.121 157.332C202.761 163.332 231.121 147.572 257.691 126.772C264.281 121.612 270.981 116.582 278.691 110.682C278.971 120.352 275.341 127.262 271.291 134.132C263.371 147.552 252.041 158.132 241.981 169.782C234.481 173.482 226.431 176.032 219.481 180.832L198.631 182.402Z" fill="#3F0A46"/>
<path d="M198.631 182.402L219.481 180.852C223.481 181.712 227.481 182.512 231.431 183.442C259.561 190.102 276.291 208.052 283.201 235.732C283.841 238.262 284.451 240.812 285.351 244.502C290.761 239.962 295.461 235.852 300.351 231.962C326.721 210.962 355.591 207.692 385.621 222.202C416.061 236.912 431.741 261.862 430.741 296.022C429.421 341.152 398.281 373.572 355.181 375.512C310.811 377.512 275.031 347.042 269.491 302.632C269.261 300.742 270.261 297.912 268.041 297.142C265.151 296.142 263.431 299.142 261.611 300.752C239.101 321.192 213.421 323.932 186.951 311.362C160.481 298.792 147.631 275.862 148.561 246.852C149.401 220.632 162.991 201.182 186.111 188.622C190.201 186.402 194.451 184.472 198.631 182.402ZM314.701 323.232C320.889 323.111 326.777 320.538 331.071 316.08C335.365 311.621 337.713 305.64 337.601 299.452C337.459 293.411 334.946 287.669 330.605 283.466C326.264 279.263 320.443 276.937 314.401 276.992C301.401 276.992 290.801 287.552 290.901 300.202C291.001 312.852 301.941 323.382 314.701 323.232ZM208.951 265.782C208.951 278.782 219.471 289.402 232.161 289.262C244.291 289.122 254.971 278.472 255.261 266.202C255.561 253.592 244.891 242.612 232.151 242.402C229.081 242.374 226.037 242.962 223.199 244.13C220.36 245.297 217.783 247.021 215.621 249.2C213.459 251.379 211.755 253.969 210.61 256.816C209.464 259.664 208.9 262.712 208.951 265.782Z" fill="#FEFDFE"/>
<path d="M302.561 212.292C302.711 211.292 301.912 209.682 304.092 210.292C304.882 211.882 303.611 211.972 302.561 212.292Z" fill="#FEFDFE"/>
<path d="M314.701 323.232C301.941 323.382 291.011 312.802 290.901 300.232C290.791 287.662 301.441 277.062 314.401 277.022C320.443 276.967 326.264 279.293 330.605 283.496C334.947 287.699 337.46 293.441 337.601 299.482C337.706 305.665 335.354 311.638 331.061 316.091C326.768 320.543 320.884 323.111 314.701 323.232Z" fill="#3F0A46"/>
<path d="M208.951 265.782C208.9 262.712 209.464 259.664 210.61 256.816C211.755 253.969 213.459 251.379 215.621 249.2C217.783 247.021 220.36 245.297 223.199 244.13C226.037 242.962 229.081 242.374 232.151 242.402C244.891 242.612 255.561 253.592 255.261 266.202C254.971 278.472 244.261 289.122 232.161 289.262C219.471 289.402 208.981 278.792 208.951 265.782Z" fill="#3F0A46"/>
</svg>
