<svg width="696" height="750" viewBox="0 0 696 750" fill="none" xmlns="http://www.w3.org/2000/svg">
<path d="M659.44 300.719C662.14 300.719 662.15 302.549 662.31 304.589C665.15 341.096 668.027 377.599 670.94 414.099C673.607 447.499 676.273 480.899 678.94 514.299C681.56 547.459 684 580.639 686.71 613.789C688.98 641.699 692.12 669.509 693.05 697.539C693.35 706.409 695.05 715.489 695.68 724.539C696.04 730.089 693.91 732.149 688.46 732.659C669.16 734.469 649.82 735.769 630.52 737.299C614.39 738.569 598.3 740.839 582.03 741.459C559.3 742.319 536.6 743.859 513.87 745.009C456.95 747.869 399.98 749.449 343 749.429C299 749.429 254.87 749.169 210.86 747.539C160.86 745.679 110.95 742.229 61 739.349C44.28 738.349 27.74 735.349 11 734.819C2.3 734.519 0 731.679 0 722.259C0 712.259 0.460054 702.149 0.930054 692.099C3.76005 632.299 5.42001 572.429 8.51001 512.659C11.78 449.539 12.1601 386.299 16.6801 323.239C16.8701 320.629 16.38 317.839 19.52 316.519C47.72 325.619 76.18 333.609 105.72 337.059C106.99 339.659 109.47 339.529 111.83 339.979C138.06 344.979 164.48 348.609 191.01 351.649C222.1 355.209 253.24 357.869 284.51 358.379C311.21 358.809 337.84 358.479 364.59 356.269C389.02 354.269 413.7 354.169 438.08 351.269C482.08 346.069 525.86 338.769 568.91 327.989C580.61 325.059 592.71 322.989 603.42 316.889C622.46 312.879 640.64 305.719 659.44 300.719ZM603.28 387.849C596.58 383.929 589.11 384.559 581.99 385.099C548.72 387.639 515.51 391.359 482.2 393.179C462.13 394.279 442.2 396.099 422.14 397.659C411.14 398.519 399.86 397.219 389.24 399.409C374.668 402.546 359.768 403.889 344.87 403.409C315.31 402.169 285.87 398.189 256.39 395.119C232.88 392.679 209.39 389.979 185.9 387.259C162.66 384.559 139.44 381.659 116.21 378.909C105.63 377.649 94.97 374.529 84.6 379.909C84.6 383.719 83.88 387.689 84.67 391.329C95.9 443.499 126.58 479.249 177.79 494.209C229 509.169 274.18 495.579 311.42 457.209C322.33 445.979 329.5 432.579 330.31 416.459L359.31 417.459C359.533 425.848 362.048 434.017 366.58 441.079C378.58 459.979 393.86 475.079 414.29 485.209C471.6 513.599 538.79 499.299 578.29 449.069C592.28 431.229 602.79 411.439 603.28 387.849ZM507.98 671.519C524.62 674.409 541.26 677.339 557.92 680.169C563.63 681.169 568.98 680.349 572.77 675.409C576.3 670.819 575.18 665.809 572.98 661.189C566.1 646.769 556.88 634.189 543.21 625.409C531.08 612.629 516.56 603.829 499.31 600.119C490.93 598.319 482.31 597.579 473.8 596.489C442.753 592.489 411.617 589.369 380.39 587.129C341.54 584.269 302.8 581.129 264.76 571.859C235.76 564.859 207.42 567.579 180.4 580.859C170.19 582.859 162.46 589.489 154.33 595.209C135.92 608.149 121.67 624.579 113.33 645.709C106.26 663.569 112.26 674.109 131.33 676.259C144.89 677.779 158.33 675.259 171.81 673.719C192.03 671.989 212.26 670.499 232.45 668.449C247.96 666.879 263.51 668.089 279.01 667.109C306.92 665.339 334.81 662.739 362.81 663.419C393.64 664.159 424.53 664.419 455.25 666.789C472.84 668.149 490.58 668.379 508 671.519H507.98ZM660.44 382.109C649.2 380.229 638.01 379.289 627.75 385.499L660.44 382.109Z" fill="#24C339"/>
<path d="M659.44 300.719C640.64 305.719 622.44 312.879 603.38 316.909C592.165 300.828 578.903 286.275 563.93 273.619C550.54 262.359 537.08 251.219 521.3 243.519C506.3 236.179 490.68 229.979 475.67 222.609C442.674 206.482 413.232 183.928 389.07 156.269C374.53 139.669 365.44 120.829 365.71 97.7991C365.87 83.2991 369.09 69.4291 371.11 55.2991C371.63 51.6691 371.11 48.4091 368.65 46.0991C366.19 43.7891 363.24 45.0991 360.56 46.3691C340.08 56.1191 321.38 68.1291 306.74 85.9791C301.23 92.6891 297.61 100.749 291.74 106.889C279.74 119.409 271.14 133.889 264.3 149.489C254.78 171.219 247.78 193.629 244.93 217.389C243.54 228.999 244.65 240.619 243.39 252.229C242.66 252.009 242 252.009 241.85 251.739C240.941 250.071 240.13 248.351 239.42 246.589C228.28 217.469 207.903 198.052 178.29 188.339C174 186.929 169.93 186.919 167.2 190.589C164.62 194.059 166.94 197.149 169.33 200.149C183.71 218.269 184.05 237.449 174.27 257.899C163.68 280.039 148.01 298.169 131.27 315.649C123.5 323.749 116.58 332.729 105.7 337.069C76.1601 333.619 47.7 325.629 19.5 316.529C25.5 300.369 36.16 287.019 46.5 273.679C73.68 238.749 102.5 205.289 134.82 174.879C161.276 150.024 189.43 127.041 219.08 106.099C258.02 78.4791 299.38 55.0991 342.44 34.6691C369.44 21.8491 397.36 11.2291 425.44 1.10908C432.71 -1.52092 434.96 0.449071 433.52 7.84907C430.65 22.5791 427.62 37.2291 427.76 52.4091C428.15 94.9491 445.38 128.079 480.76 152.259C511.31 173.169 543.76 191.319 572.76 214.499C603.04 238.699 632.3 263.979 656.61 294.499C658.07 296.349 659.83 297.999 659.44 300.719Z" fill="#C7EFCC"/>
<path d="M105.68 337.069C116.56 332.729 123.48 323.749 131.25 315.649C148.01 298.169 163.68 280.039 174.25 257.899C184.03 237.449 183.69 218.269 169.31 200.149C166.92 197.149 164.6 194.059 167.18 190.589C169.91 186.919 173.98 186.929 178.27 188.339C207.876 198.099 228.253 217.516 239.4 246.589C240.11 248.351 240.921 250.071 241.83 251.739C241.98 252.009 242.64 252.009 243.37 252.229C244.63 240.619 243.52 228.999 244.91 217.389C247.76 193.629 254.76 171.219 264.28 149.489C271.12 133.869 279.77 119.409 291.72 106.889C297.59 100.749 301.21 92.6891 306.72 85.9791C321.36 68.1291 340.06 56.1191 360.54 46.3691C363.22 45.0891 366.27 43.9291 368.63 46.0991C370.99 48.2691 371.63 51.6692 371.09 55.2992C369.09 69.4292 365.85 83.2992 365.69 97.7992C365.42 120.799 374.51 139.669 389.05 156.269C413.211 183.928 442.654 206.482 475.65 222.609C490.65 229.979 506.25 236.179 521.28 243.519C537.06 251.219 550.52 262.359 563.91 273.619C578.883 286.276 592.145 300.828 603.36 316.909C592.65 323.049 580.55 325.079 568.85 328.009C525.85 338.789 482.06 346.089 438.02 351.289C413.64 354.179 388.96 354.289 364.53 356.289C337.78 358.499 311.15 358.829 284.45 358.399C253.18 357.889 222.04 355.229 190.95 351.669C164.42 348.669 137.95 345.029 111.77 339.999C109.43 339.539 106.95 339.669 105.68 337.069Z" fill="#8BDF96"/>
<path d="M180.42 580.879C207.42 567.579 235.78 564.819 264.78 571.879C302.78 581.119 341.56 584.289 380.41 587.149C411.616 589.436 442.753 592.556 473.82 596.509C482.34 597.599 490.95 598.339 499.33 600.139C516.58 603.849 531.1 612.649 543.22 625.429C530.36 625.939 517.49 626.119 504.66 627.029C491.28 628.029 489.36 632.029 495.66 643.799C500.45 652.729 507.04 660.879 507.96 671.539C490.54 668.399 472.8 668.169 455.24 666.829C424.52 664.479 393.63 664.199 362.8 663.459C334.8 662.779 306.91 665.379 279 667.149C263.5 668.149 248 666.919 232.44 668.489C212.25 670.489 192.02 672.029 171.8 673.759C171.08 652.479 184.18 634.859 205.51 630.349C229.77 625.219 254.51 623.249 279.23 619.679C275.47 617.609 271.61 617.219 267.53 617.239C250.53 617.309 233.83 620.579 216.99 622.399C200.52 624.169 192.99 619.649 187.53 604.099C184.9 596.449 182.79 588.619 180.42 580.879Z" fill="#FEFEFE"/>
<path d="M84.6191 379.909C94.9891 374.489 105.619 377.609 116.229 378.909C139.459 381.659 162.679 384.559 185.919 387.259C209.399 389.979 232.919 392.679 256.409 395.119C285.879 398.189 315.329 402.119 344.889 403.409C359.787 403.889 374.687 402.546 389.259 399.409C399.879 397.219 411.169 398.519 422.159 397.659C442.159 396.099 462.159 394.279 482.219 393.179C515.529 391.359 548.739 387.639 582.009 385.099C589.129 384.559 596.599 383.929 603.299 387.849C601.226 388.342 599.126 388.712 597.009 388.959C570.739 390.659 544.719 394.479 518.719 398.329C507.319 400.009 507.359 400.189 508.369 411.949C508.559 414.099 508.599 416.259 508.759 418.399C511.269 450.629 480.759 477.849 452.929 479.159C437.564 479.842 422.543 474.472 411.094 464.201C399.645 453.93 392.682 439.578 391.699 424.229C391.339 418.469 392.279 411.659 382.649 415.629C381.759 415.999 380.399 415.119 379.239 415.019C372.449 414.399 365.879 415.639 359.379 417.459L330.379 416.459C322.529 415.679 315.019 412.639 306.999 413.099C299.589 413.529 296.229 416.039 297.289 423.269C300.539 445.319 277.929 471.529 254.649 476.849C232.109 482.009 211.989 475.849 196.189 459.559C180.389 443.269 176.879 423.139 183.809 401.559C185.579 396.059 184.639 394.499 178.909 393.869C166.809 392.549 154.799 390.469 142.749 388.649C123.356 385.769 103.979 382.856 84.6191 379.909Z" fill="#050504"/>
<path d="M84.621 379.909C103.954 382.843 123.314 385.769 142.701 388.689C154.701 390.509 166.761 392.589 178.861 393.909C184.591 394.539 185.531 396.099 183.761 401.599C176.831 423.159 180.421 443.309 196.141 459.599C211.861 475.889 232.061 482.049 254.601 476.889C277.881 471.569 300.491 445.359 297.241 423.309C296.181 416.079 299.541 413.569 306.951 413.139C314.951 412.679 322.481 415.719 330.331 416.499C329.521 432.619 322.331 446.019 311.441 457.249C274.201 495.599 229.071 509.249 177.811 494.249C126.551 479.249 95.921 443.539 84.691 391.369C83.901 387.689 84.611 383.719 84.621 379.909Z" fill="#FEFEFE"/>
<path d="M359.381 417.459C365.881 415.639 372.451 414.399 379.241 415.019C380.401 415.119 381.761 416.019 382.651 415.629C392.281 411.629 391.341 418.469 391.701 424.229C392.683 439.578 399.647 453.93 411.096 464.201C422.545 474.472 437.565 479.843 452.931 479.159C480.781 477.849 511.271 450.629 508.761 418.399C508.601 416.259 508.561 414.099 508.371 411.949C507.371 400.189 507.371 400.009 518.721 398.329C544.721 394.479 570.721 390.659 597.011 388.959C599.127 388.712 601.228 388.342 603.301 387.849C602.791 411.439 592.301 431.229 578.301 449.069C538.851 499.299 471.661 513.599 414.301 485.209C393.871 475.089 378.571 459.979 366.591 441.079C362.08 434.01 359.586 425.843 359.381 417.459Z" fill="#FEFEFE"/>
<path d="M180.421 580.879C182.791 588.619 184.901 596.449 187.571 604.079C193.021 619.629 200.571 624.149 217.031 622.379C233.871 620.559 250.551 617.289 267.571 617.219C271.651 617.219 275.511 617.589 279.271 619.659C254.601 623.229 229.811 625.199 205.551 630.329C184.221 634.839 171.121 652.459 171.841 673.739C158.391 675.259 144.921 677.799 131.361 676.279C112.261 674.129 106.261 663.589 113.361 645.729C121.721 624.599 135.971 608.169 154.361 595.229C162.481 589.509 170.211 582.899 180.421 580.879Z" fill="#050504"/>
<path d="M508 671.519C507.08 660.859 500.489 652.709 495.699 643.779C489.359 631.999 491.279 627.959 504.699 627.009C517.529 626.099 530.399 625.919 543.259 625.409C556.939 634.219 566.159 646.769 573.039 661.189C575.239 665.809 576.359 670.819 572.829 675.409C569.039 680.349 563.689 681.139 557.979 680.169C541.279 677.339 524.64 674.409 508 671.519Z" fill="#050504"/>
<path d="M660.46 382.109L627.77 385.499C638.03 379.289 649.22 380.229 660.46 382.109Z" fill="#050504"/>
</svg>
